<?xml version="1.0" encoding="utf-8"?>
<!-- Generator: Adobe Illustrator 23.0.0, SVG Export Plug-In . SVG Version: 6.00 Build 0)  -->
<svg version="1.1" id="Capa_1" xmlns="http://www.w3.org/2000/svg" xmlns:xlink="http://www.w3.org/1999/xlink" x="0px" y="0px"
	 viewBox="0 0 202 134" style="enable-background:new 0 0 202 134;" xml:space="preserve">
<style type="text/css">
	.st0{fill:#3F3F8F;}
	.st1{fill:#DB4655;}
	.st2{fill:#F2F2F6;}
</style>
<g>
	<path class="st0" d="M202,6.7v120.6c0,3.7-2.9,6.7-6.5,6.7H6.5c-3.6,0-6.5-3-6.5-6.7V67l2.4-2.2L0,63V45.1l2.4-2.1V24.5L0,21.7v-15
		C0,5.8,0.2,5,0.4,4.3l2.6,0.4V4.1l3-4.1C6.4,0,6.7,0,7,0h32.1l6.5,6h9.8l6.5-6H95l2.8,2.6L101,0h94.5C199.1,0,202,3,202,6.7z"/>
	<path class="st1" d="M58.6,25.1L55.4,0h-9.8l-3.3,25.1h-39v16.7h39L45.6,67h9.8l3.3-25.1l42.4-3.5v-10L58.6,25.1z"/>
	<path class="st1" d="M6.5,25.1L0,28.4v10l6.5,3.5V25.1z"/>
	<path class="st2" d="M101,0h-6L62.3,21.7h-0.4V0h-6.5v25.1c0,1.8,1.4,3.2,3.2,3.2H101v-6.7H74.3L101,4V0z"/>
	<path class="st2" d="M39.1,0v21.7h-0.4L6.5,0.3L3.2,3.1l3.4,5.2l20.1,13.4H6.5l-3.2,3.5l3.2,3.2h35.9c1.7,0,3.2-1.5,3.2-3.2V0
		L39.1,0z"/>
	<path class="st2" d="M3.7,42.1l2.8,3H27L6.5,58.7l-2.2,4.5l2.2,3.5L39,45.1h0.1V67h6.5V41.7c0-1.8-1.4-3.2-3.2-3.2H6.5L3.7,42.1z"
		/>
	<path class="st2" d="M55.4,67h6.5V45.1H62L95,67h6v-4L74,45.1h27v-6.7H58.5c-1.7,0-3.2,1.5-3.2,3.2V67z"/>
	<path class="st2" d="M6.5,0.3L6.1,0C3.5,0.2,1.3,1.9,0.4,4.3l6.1,4V0.3z"/>
	<path class="st2" d="M0,21.7h6.5v6.7H0V21.7z"/>
	<path class="st2" d="M6.5,58.7L0,63v4h6l0.5-0.3V58.7z"/>
	<path class="st2" d="M0,38.4h6.5v6.7H0V38.4z"/>
	<g>
		<path class="st2" d="M66.5,95.6l-7.4-0.1l-3.6-8.2c-0.3-1.1-1.8-1.1-2.1,0l-2.7,8.2l-8.4,0.1c-1.1,0-1.5,1.4-0.7,2.1l6.7,5.1
			l-2.5,8.2c-0.3,1.1,0.9,1.9,1.7,1.3l6.8-5l6.8,5c0.9,0.6,2.1-0.2,1.7-1.3l-2.5-8.2l6.7-5.1C68.1,97,67.6,95.6,66.5,95.6L66.5,95.6
			z"/>
		<path class="st2" d="M156.6,102.2l-2.1,0L153,99c-0.3-0.7-1-1.2-1.8-1.2c-0.9,0-1.6,0.6-1.9,1.4l-1,3l-2.8,0
			c-1.8,0-2.6,2.4-1.1,3.5l2.3,1.7l-0.9,2.8c-0.6,1.8,1.4,3.3,2.9,2.2l2.3-1.7l2.3,1.7c1.5,1.1,3.5-0.4,2.9-2.2l-0.9-2.8l2.3-1.7
			C159.2,104.7,158.4,102.3,156.6,102.2L156.6,102.2z"/>
		<path class="st2" d="M130.5,62l-2.1,0l-1.4-3.2c-0.3-0.7-1-1.2-1.8-1.2c-0.9,0-1.6,0.6-1.9,1.4l-1,3l-2.8,0
			c-1.8,0-2.6,2.4-1.1,3.5l2.3,1.7l-0.9,2.8c-0.6,1.8,1.4,3.3,2.9,2.2l2.3-1.7l2.3,1.7c1.5,1.1,3.5-0.4,2.9-2.2l-0.9-2.8l2.3-1.7
			C133.1,64.5,132.3,62.1,130.5,62L130.5,62z"/>
		<path class="st2" d="M182.6,48.4l-2.1,0l-1.4-3.2c-0.3-0.7-1-1.2-1.8-1.2c-0.9,0-1.6,0.6-1.9,1.4l-1,3l-2.8,0
			c-1.8,0-2.6,2.4-1.1,3.5l2.3,1.7l-0.9,2.8c-0.6,1.8,1.4,3.3,2.9,2.2L177,57l2.3,1.7c1.5,1.1,3.5-0.4,2.9-2.2l-0.9-2.8l2.3-1.7
			C185.2,50.9,184.4,48.5,182.6,48.4L182.6,48.4z"/>
		<path class="st2" d="M156.5,28.2l-2.1,0l-1.4-3.2c-0.3-0.7-1-1.2-1.8-1.2c-0.9,0-1.6,0.6-1.9,1.4l-1,3l-2.8,0
			c-1.8,0-2.6,2.4-1.1,3.5l2.3,1.7l-0.9,2.8c-0.6,1.8,1.4,3.3,2.9,2.2l2.3-1.7l2.3,1.7c1.5,1.1,3.5-0.4,2.9-2.2l-0.9-2.8l2.3-1.7
			C159.1,30.6,158.4,28.2,156.5,28.2z"/>
		<path class="st2" d="M162.8,68.3l-1.2,0l-0.8-1.8c-0.2-0.4-0.6-0.7-1-0.7c-0.5,0-0.9,0.3-1,0.8l-0.5,1.7l-1.6,0
			c-1,0-1.4,1.3-0.6,2l1.3,1l-0.5,1.5c-0.3,1,0.8,1.8,1.6,1.2l1.3-0.9l1.3,0.9c0.8,0.6,1.9-0.2,1.6-1.2l-0.5-1.5l1.3-1
			C164.2,69.6,163.8,68.3,162.8,68.3L162.8,68.3z"/>
	</g>
</g>
</svg>
