<?xml version="1.0" encoding="utf-8"?>
<!-- Generator: Adobe Illustrator 23.0.0, SVG Export Plug-In . SVG Version: 6.00 Build 0)  -->
<svg version="1.1" id="Capa_1" xmlns="http://www.w3.org/2000/svg" xmlns:xlink="http://www.w3.org/1999/xlink" x="0px" y="0px"
	 viewBox="0 0 202 134" style="enable-background:new 0 0 202 134;" xml:space="preserve">
<style type="text/css">
	.st0{fill:#F2F2F6;}
	.st1{fill:#DB4655;}
</style>
<g>
	<path class="st0" d="M156.4,0H45.6c-3.6,0-6.5,3-6.5,6.7V131h123.8V6.7C162.9,3,160,0,156.4,0L156.4,0z"/>
	<path class="st0" d="M41.8,127.3l3.8,6.7h110.8l3.8-6.7H41.8z"/>
	<path class="st1" d="M138.4,69.2l-6.6-4.5c-0.9-0.6-1.5-1.7-1.5-2.8v-9.5c0-1-1-1.6-1.9-1.2l-17.7,9.1l5.8-21c0.3-1-0.7-2-1.6-1.6
		l-4.8,1.7c-1.5,0.5-3.2-0.2-3.9-1.6l-4.1-7.9c-0.5-0.9-1.8-0.9-2.3,0l-4.1,7.9c-0.7,1.4-2.4,2.1-3.9,1.6L87,37.6
		c-1-0.3-1.9,0.6-1.6,1.6l5.8,21l-17.7-9.1c-0.9-0.4-1.9,0.2-1.9,1.2v9.5c0,1.1-0.5,2.2-1.5,2.8l-6.6,4.5c-0.8,0.5-0.8,1.8,0.1,2.3
		l21,12.3l-1.8,5.6c-0.7,2.2,0.9,4.4,3.1,4.4h11.8v16.7c0,1.8,1.5,3.3,3.3,3.3c1.8,0,3.3-1.5,3.3-3.3V93.8H116
		c2.2,0,3.8-2.2,3.1-4.4l-1.8-5.6l21-12.3C139.1,70.9,139.2,69.7,138.4,69.2L138.4,69.2z"/>
	<path class="st1" d="M45.6,127.3L45.6,127.3L45.6,127.3v6.7H6.5c-3.6,0-6.5-3-6.5-6.7V6.7C0,3,2.9,0,6.5,0h39.1V127.3z"/>
	<path class="st1" d="M202,6.7v120.6c0,3.7-2.9,6.7-6.5,6.7h-39.1V0h39.1C199.1,0,202,3,202,6.7z"/>
</g>
</svg>
