<svg width="571" height="579" viewBox="0 0 571 579" fill="none" xmlns="http://www.w3.org/2000/svg">
<g opacity="0.1" clip-path="url(#clip0)">
<path d="M435.63 279.21C432.538 280.205 429.212 280.205 426.12 279.21C422.714 278.124 419.448 276.641 416.39 274.79C413.07 272.79 409.57 270.65 405.86 268.24C402.113 265.828 398.141 263.785 394 262.14C389.618 260.408 384.999 259.349 380.3 259C374.776 258.657 369.239 259.398 364 261.18C357.544 263.079 351.688 266.613 347 271.44C342.672 275.973 339.392 281.401 337.39 287.34C335.373 293.385 334.402 299.729 334.52 306.1C334.583 312.523 335.594 318.902 337.52 325.03C339.503 331.669 342.542 337.946 346.52 343.62C349.634 348.032 353.233 352.081 357.25 355.69C360.977 359.256 365.213 362.249 369.82 364.57L388.56 335.78C386.274 334.324 384.095 332.706 382.04 330.94C380.124 329.17 378.33 327.272 376.67 325.26C374.907 323.179 373.575 320.769 372.75 318.17C371.425 314.288 371.478 310.068 372.9 306.22C373.502 304.446 374.521 302.843 375.871 301.545C377.221 300.246 378.864 299.291 380.66 298.76C383.578 297.807 386.719 297.768 389.66 298.65C392.818 299.616 395.842 300.977 398.66 302.7C401.66 304.51 404.87 306.53 408.18 308.7C411.509 310.913 415.026 312.831 418.69 314.43C422.421 316.057 426.369 317.131 430.41 317.62C434.997 318.103 439.635 317.581 444 316.09L454.82 312.66L443.45 276.74L435.63 279.21Z" fill="black"/>
<path d="M436.27 211.76C434.966 209.663 433.14 207.94 430.97 206.76C428.943 205.669 426.699 205.04 424.4 204.92C422.064 204.792 419.722 205.07 417.48 205.74C415.214 206.392 413.058 207.376 411.08 208.66C408.921 210.006 406.996 211.695 405.38 213.66C404.121 215.201 403.038 216.878 402.15 218.66C401.258 220.331 400.614 222.123 400.24 223.98L412.24 227.79C412.531 226.839 412.888 225.91 413.31 225.01C413.753 224.159 414.251 223.337 414.8 222.55C415.365 221.722 416.089 221.015 416.93 220.47C418.172 219.618 419.67 219.223 421.17 219.35C421.855 219.389 422.521 219.59 423.112 219.938C423.704 220.286 424.204 220.77 424.57 221.35C425.191 222.293 425.512 223.401 425.49 224.53C425.46 225.745 425.275 226.952 424.94 228.12C424.6 229.37 424.19 230.69 423.74 232.12C423.28 233.514 422.946 234.946 422.74 236.4C422.525 237.879 422.525 239.381 422.74 240.86C423.023 242.525 423.664 244.108 424.62 245.5L426.89 249L438.49 241.45L436.86 238.94C436.202 237.946 435.87 236.771 435.91 235.58C435.963 234.267 436.168 232.965 436.52 231.7C436.89 230.33 437.32 228.88 437.81 227.33C438.296 225.772 438.631 224.172 438.81 222.55C438.992 220.821 438.911 219.075 438.57 217.37C438.178 215.368 437.396 213.462 436.27 211.76Z" fill="black"/>
<path d="M441.486 246.587L430.444 253.766L437.258 264.246L448.299 257.067L441.486 246.587Z" fill="black"/>
<path d="M377.24 -21.46C368.657 -25.3938 359.464 -27.8322 350.06 -28.67C340.591 -29.5886 331.038 -29.1067 321.71 -27.24C310.503 -24.9867 300.903 -21.5733 292.91 -17C285.91 -13.1285 279.371 -8.4754 273.42 -3.12999C267.578 1.80696 262.496 7.57916 258.34 14L297.75 46.19C300.258 43.0483 302.988 40.0907 305.92 37.34C308.838 34.8094 311.918 32.4712 315.14 30.34C318.488 28.0786 322.25 26.5017 326.21 25.7C332.136 24.3666 338.341 25.1153 343.78 27.82C346.294 28.991 348.49 30.7468 350.187 32.9406C351.883 35.1344 353.029 37.7025 353.53 40.43C354.472 44.8858 354.029 49.5233 352.26 53.72C350.336 58.2287 347.85 62.4758 344.86 66.36C341.7 70.54 338.233 74.8967 334.46 79.43C330.678 83.9851 327.298 88.8601 324.36 94C321.373 99.2397 319.164 104.885 317.8 110.76C316.377 117.426 316.421 124.322 317.93 130.97L321.25 147.45L375.96 136.45L373.56 124.59C372.581 119.884 373.095 114.99 375.03 110.59C377.17 105.747 379.872 101.172 383.08 96.96C386.5 92.3934 390.273 87.5767 394.4 82.51C398.569 77.3753 402.226 71.8457 405.32 66C408.582 59.8103 410.885 53.1612 412.15 46.28C413.537 39.0333 413.327 30.9 411.52 21.88C409.393 11.34 405.26 2.45668 399.12 -4.76999C393.137 -11.8684 385.667 -17.566 377.24 -21.46Z" fill="black"/>
<path d="M379.366 160.025L327.294 170.525L337.262 219.96L389.334 209.46L379.366 160.025Z" fill="black"/>
<path d="M488.68 72.25C486.664 73.7936 484.218 74.674 481.68 74.77C478.961 74.8739 476.24 74.6353 473.58 74.06C470.734 73.46 467.734 72.7533 464.58 71.94C461.4 71.1189 458.155 70.5768 454.88 70.32C451.532 70.0611 448.163 70.2901 444.88 71C441.193 71.8637 437.739 73.5223 434.76 75.86L427.28 81.44L445.8 106.29L451.18 102.29C453.314 100.679 455.898 99.7741 458.57 99.7C461.508 99.6295 464.445 99.9014 467.32 100.51C470.43 101.14 473.74 101.9 477.26 102.76C480.814 103.635 484.444 104.168 488.1 104.35C491.985 104.511 495.872 104.086 499.63 103.09C504.019 101.863 508.126 99.791 511.72 96.99C516.221 93.7732 519.816 89.4509 522.16 84.44C524.307 79.7513 525.393 74.6466 525.34 69.49C525.281 64.25 524.328 59.0587 522.52 54.14C520.733 49.1661 518.222 44.4825 515.07 40.24C511.737 35.6244 507.686 31.573 503.07 28.24C499.464 25.6473 495.576 23.4701 491.48 21.75C487.62 19.9819 483.519 18.7989 479.31 18.24L472.51 45.66C474.683 46.1712 476.815 46.8396 478.89 47.66C480.854 48.5337 482.758 49.5358 484.59 50.66C486.537 51.7951 488.237 53.3081 489.59 55.11C491.672 57.7683 492.77 61.0644 492.7 64.44C492.699 65.9676 492.334 67.4729 491.635 68.8312C490.936 70.1894 489.923 71.3614 488.68 72.25Z" fill="black"/>
<path d="M417.132 90.0049L394.679 106.734L412.305 130.39L434.758 113.66L417.132 90.0049Z" fill="black"/>
<path d="M452.395 1.92498L436.855 11.915L446.337 26.6654L461.877 16.6754L452.395 1.92498Z" fill="black"/>
<path d="M446.57 -46.27C444.75 -49.2213 442.206 -51.6584 439.18 -53.35C436.35 -54.8931 433.217 -55.7976 430 -56C426.718 -56.1962 423.427 -55.8276 420.27 -54.91C413.621 -52.9984 407.681 -49.1729 403.19 -43.91C401.408 -41.7538 399.872 -39.406 398.61 -36.91C397.335 -34.5723 396.415 -32.0582 395.88 -29.45L412.7 -24C413.115 -25.3351 413.627 -26.6385 414.23 -27.9C414.864 -29.0874 415.569 -30.2361 416.34 -31.34C417.144 -32.4905 418.163 -33.4751 419.34 -34.24C421.102 -35.429 423.224 -35.9665 425.34 -35.76C426.304 -35.698 427.239 -35.406 428.067 -34.9084C428.896 -34.4108 429.592 -33.7221 430.1 -32.9C430.965 -31.573 431.405 -30.0135 431.36 -28.43C431.299 -26.7368 431.03 -25.0576 430.56 -23.43C430.06 -21.67 429.483 -19.82 428.83 -17.88C428.174 -15.9263 427.692 -13.9185 427.39 -11.88C427.085 -9.80112 427.085 -7.68885 427.39 -5.60999C427.766 -3.26721 428.65 -1.03505 429.98 0.930012L433.13 5.86001L449.5 -4.61999L447.23 -8.16999C446.315 -9.57279 445.864 -11.2272 445.94 -12.9C446.022 -14.7427 446.324 -16.569 446.84 -18.34C447.373 -20.26 447.99 -22.3 448.69 -24.46C449.395 -26.6441 449.887 -28.8912 450.16 -31.17C450.436 -33.5931 450.345 -36.044 449.89 -38.44C449.297 -41.239 448.169 -43.8975 446.57 -46.27Z" fill="black"/>
<path d="M580.3 59C574.777 58.657 569.239 59.3975 564 61.18C557.544 63.0785 551.689 66.6127 547 71.44C542.672 75.9732 539.392 81.4009 537.39 87.34C535.373 93.3845 534.403 99.7289 534.52 106.1C534.584 112.523 535.595 118.902 537.52 125.03C539.504 131.669 542.543 137.946 546.52 143.62C549.634 148.032 553.233 152.081 557.25 155.69C560.977 159.256 565.214 162.249 569.82 164.57L588.56 135.78C586.275 134.324 584.096 132.706 582.04 130.94C580.125 129.17 578.33 127.272 576.67 125.26C574.908 123.179 573.575 120.769 572.75 118.17C571.426 114.288 571.479 110.068 572.9 106.22C573.502 104.446 574.521 102.843 575.871 101.545C577.222 100.246 578.864 99.2915 580.66 98.76C583.579 97.8068 586.719 97.7684 589.66 98.65C592.816 99.6001 595.84 100.944 598.66 102.65C601.66 104.46 604.87 106.48 608.18 108.65C611.51 110.863 615.026 112.781 618.69 114.38C622.421 116.007 626.369 117.081 630.41 117.57C634.994 118.069 639.631 117.564 644 116.09L654.82 112.66L643.45 76.74L635.66 79.21C632.568 80.2052 629.242 80.2052 626.15 79.21C622.744 78.1244 619.478 76.6408 616.42 74.79C613.1 72.79 609.6 70.65 605.89 68.24C602.134 65.8259 598.152 63.7829 594 62.14C589.618 60.4077 584.999 59.3491 580.3 59Z" fill="black"/>
<path d="M457.331 182.308L444.165 182.634L444.475 195.13L457.641 194.804L457.331 182.308Z" fill="black"/>
<path d="M461 167C462.027 166.027 463.153 165.027 464.38 164C465.616 162.932 466.744 161.747 467.75 160.46C468.815 159.087 469.665 157.559 470.27 155.93C470.956 154.008 471.259 151.969 471.16 149.93C471.146 147.474 470.499 145.063 469.28 142.93C468.122 140.944 466.541 139.237 464.65 137.93C462.725 136.602 460.587 135.612 458.33 135C456.052 134.37 453.693 134.077 451.33 134.13C448.788 134.148 446.265 134.577 443.86 135.4C441.984 136.048 440.186 136.903 438.5 137.95C436.862 138.904 435.372 140.093 434.08 141.48L442.33 151.03C443.074 150.368 443.866 149.763 444.7 149.22C445.522 148.731 446.374 148.294 447.25 147.91C448.168 147.504 449.156 147.28 450.16 147.25C451.666 147.18 453.149 147.632 454.36 148.53C454.924 148.921 455.384 149.443 455.703 150.051C456.021 150.658 456.189 151.334 456.19 152.02C456.232 153.149 455.925 154.263 455.31 155.21C454.658 156.202 453.882 157.106 453 157.9C452 158.79 451 159.7 449.9 160.65C448.779 161.596 447.745 162.64 446.81 163.77C445.855 164.92 445.073 166.203 444.49 167.58C443.851 169.145 443.564 170.832 443.65 172.52L443.75 176.69L457.59 176.34L457.51 173.34C457.484 172.143 457.834 170.968 458.51 169.98C459.222 168.894 460.058 167.894 461 167Z" fill="black"/>
<path d="M579.349 -39.9907L527.277 -29.4911L537.245 19.9439L589.317 9.44437L579.349 -39.9907Z" fill="black"/>
<path d="M605.32 666C608.582 659.81 610.885 653.161 612.15 646.28C613.537 639.033 613.327 630.9 611.52 621.88C609.393 611.34 605.26 602.457 599.12 595.23C593.136 588.135 585.666 582.441 577.24 578.55C568.657 574.616 559.464 572.178 550.06 571.34C540.591 570.421 531.038 570.903 521.71 572.77C510.497 575.023 500.896 578.443 492.91 583.03C485.91 586.902 479.371 591.555 473.42 596.9C467.58 601.828 462.499 607.59 458.34 614L497.75 646.19C500.258 643.048 502.988 640.091 505.92 637.34C508.838 634.809 511.918 632.471 515.14 630.34C518.488 628.079 522.25 626.502 526.21 625.7C532.136 624.367 538.341 625.115 543.78 627.82C546.294 628.991 548.49 630.747 550.187 632.941C551.883 635.134 553.029 637.702 553.53 640.43C554.472 644.886 554.029 649.523 552.26 653.72C550.336 658.229 547.85 662.476 544.86 666.36C541.7 670.54 538.233 674.897 534.46 679.43C531.669 682.788 529.097 686.322 526.76 690.01H588.35C590.276 687.55 592.276 685.027 594.35 682.44C598.532 677.33 602.206 671.824 605.32 666Z" fill="black"/>
<path d="M379.389 560.013L327.317 570.513L337.285 619.948L389.357 609.448L379.389 560.013Z" fill="black"/>
<path d="M405.32 466C408.582 459.81 410.885 453.161 412.15 446.28C413.537 439.033 413.327 430.9 411.52 421.88C409.393 411.34 405.26 402.457 399.12 395.23C393.136 388.135 385.666 382.441 377.24 378.55C368.657 374.616 359.464 372.178 350.06 371.34C340.591 370.421 331.038 370.903 321.71 372.77C310.503 375.023 300.903 378.443 292.91 383.03C285.91 386.902 279.371 391.555 273.42 396.9C267.58 401.828 262.499 407.59 258.34 414L297.75 446.19C300.258 443.048 302.988 440.091 305.92 437.34C308.838 434.809 311.918 432.471 315.14 430.34C318.488 428.079 322.25 426.502 326.21 425.7C332.136 424.367 338.341 425.115 343.78 427.82C346.294 428.991 348.49 430.747 350.187 432.941C351.883 435.134 353.029 437.702 353.53 440.43C354.472 444.886 354.029 449.523 352.26 453.72C350.336 458.229 347.85 462.476 344.86 466.36C341.7 470.54 338.233 474.897 334.46 479.43C330.678 483.985 327.298 488.86 324.36 494C321.373 499.24 319.164 504.885 317.8 510.76C316.377 517.426 316.421 524.322 317.93 530.97L321.25 547.45L375.96 536.45L373.56 524.59C372.581 519.884 373.095 514.99 375.03 510.59C377.17 505.747 379.872 501.172 383.08 496.96C386.5 492.387 390.273 487.57 394.4 482.51C398.569 477.375 402.226 471.846 405.32 466Z" fill="black"/>
<path d="M417.116 490.007L394.663 506.737L412.289 530.392L434.742 513.662L417.116 490.007Z" fill="black"/>
<path d="M488.13 504.33C492.015 504.491 495.902 504.066 499.66 503.07C504.049 501.843 508.156 499.771 511.75 496.97C516.251 493.753 519.846 489.431 522.19 484.42C524.337 479.731 525.423 474.627 525.37 469.47C525.311 464.23 524.358 459.039 522.55 454.12C520.762 449.146 518.252 444.463 515.1 440.22C511.767 435.604 507.716 431.553 503.1 428.22C499.493 425.627 495.605 423.45 491.51 421.73C487.65 419.962 483.549 418.779 479.34 418.22L472.54 445.64C474.712 446.151 476.845 446.82 478.92 447.64C480.882 448.517 482.786 449.519 484.62 450.64C486.565 451.782 488.264 453.298 489.62 455.1C491.702 457.758 492.8 461.054 492.73 464.43C492.742 465.968 492.386 467.486 491.69 468.857C490.994 470.228 489.979 471.412 488.73 472.31C486.713 473.854 484.268 474.734 481.73 474.83C479.011 474.934 476.29 474.695 473.63 474.12C470.783 473.52 467.783 472.813 464.63 472C461.45 471.179 458.204 470.637 454.93 470.38C451.581 470.121 448.213 470.35 444.93 471.06C441.243 471.924 437.789 473.582 434.81 475.92L427.33 481.5L445.85 506.35L451.23 502.35C453.364 500.739 455.947 499.834 458.62 499.76C461.558 499.69 464.495 499.961 467.37 500.57C470.48 501.2 473.79 501.96 477.31 502.82C480.86 503.667 484.484 504.173 488.13 504.33Z" fill="black"/>
<path d="M453.553 402.648L437.973 412.623L447.442 427.411L463.022 417.436L453.553 402.648Z" fill="black"/>
<path d="M428.81 382.13C428.154 384.084 427.673 386.092 427.37 388.13C427.065 390.209 427.065 392.321 427.37 394.4C427.746 396.743 428.63 398.975 429.96 400.94L433.11 405.87L449.48 395.39L447.21 391.84C446.296 390.437 445.845 388.783 445.92 387.11C446.002 385.267 446.304 383.441 446.82 381.67C447.353 379.75 447.97 377.71 448.67 375.55C449.375 373.366 449.867 371.119 450.14 368.84C450.416 366.417 450.325 363.966 449.87 361.57C449.29 358.77 448.177 356.109 446.59 353.73C444.771 350.779 442.227 348.342 439.2 346.65C436.364 345.104 433.224 344.2 430 344C426.718 343.804 423.427 344.172 420.27 345.09C417.09 345.974 414.057 347.322 411.27 349.09C408.227 350.974 405.508 353.338 403.22 356.09C401.438 358.246 399.902 360.594 398.64 363.09C397.366 365.428 396.446 367.942 395.91 370.55L412.7 376C413.116 374.665 413.627 373.361 414.23 372.1C414.865 370.913 415.569 369.764 416.34 368.66C417.144 367.51 418.163 366.525 419.34 365.76C421.103 364.571 423.224 364.033 425.34 364.24C426.304 364.302 427.24 364.594 428.068 365.092C428.896 365.589 429.593 366.278 430.1 367.1C430.965 368.427 431.405 369.986 431.36 371.57C431.299 373.263 431.031 374.942 430.56 376.57C430 378.33 429.46 380.19 428.81 382.13Z" fill="black"/>
<path d="M580.64 498.76C583.559 497.807 586.699 497.768 589.64 498.65C592.799 499.616 595.823 500.977 598.64 502.7C601.64 504.51 604.85 506.53 608.16 508.7C611.49 510.913 615.006 512.831 618.67 514.43C622.401 516.057 626.349 517.131 630.39 517.62C634.984 518.106 639.629 517.584 644 516.09L654.82 512.66L643.45 476.74L635.66 479.21C632.568 480.205 629.242 480.205 626.15 479.21C622.744 478.124 619.478 476.641 616.42 474.79C613.1 472.79 609.6 470.65 605.89 468.24C602.134 465.826 598.152 463.783 594 462.14C589.618 460.408 584.999 459.349 580.3 459C574.777 458.657 569.239 459.398 564 461.18C557.544 463.079 551.689 466.613 547 471.44C542.67 475.972 539.39 481.4 537.39 487.34C535.373 493.385 534.403 499.729 534.52 506.1C534.584 512.523 535.595 518.902 537.52 525.03C539.504 531.669 542.543 537.946 546.52 543.62C549.634 548.032 553.233 552.081 557.25 555.69C560.977 559.256 565.214 562.249 569.82 564.57L588.56 535.78C586.275 534.324 584.096 532.706 582.04 530.94C580.125 529.17 578.33 527.272 576.67 525.26C574.908 523.179 573.575 520.769 572.75 518.17C571.426 514.288 571.479 510.068 572.9 506.22C573.5 504.448 574.516 502.846 575.863 501.548C577.209 500.25 578.848 499.294 580.64 498.76Z" fill="black"/>
<path d="M461 567C462.027 566.027 463.153 565.027 464.38 564C465.616 562.932 466.744 561.747 467.75 560.46C468.815 559.087 469.665 557.559 470.27 555.93C470.956 554.008 471.259 551.969 471.16 549.93C471.146 547.474 470.499 545.063 469.28 542.93C468.122 540.944 466.541 539.237 464.65 537.93C462.725 536.603 460.587 535.612 458.33 535C456.052 534.37 453.693 534.077 451.33 534.13C448.788 534.148 446.265 534.577 443.86 535.4C441.984 536.048 440.186 536.903 438.5 537.95C436.862 538.904 435.372 540.093 434.08 541.48L442.33 551.03C443.074 550.368 443.866 549.763 444.7 549.22C445.522 548.731 446.374 548.294 447.25 547.91C448.168 547.504 449.156 547.28 450.16 547.25C451.666 547.18 453.149 547.632 454.36 548.53C454.924 548.921 455.384 549.443 455.703 550.051C456.021 550.658 456.189 551.334 456.19 552.02C456.232 553.149 455.925 554.263 455.31 555.21C454.658 556.202 453.882 557.106 453 557.9C452 558.79 451 559.7 449.9 560.65C448.779 561.596 447.745 562.64 446.81 563.77C445.855 564.92 445.073 566.204 444.49 567.58C443.851 569.145 443.564 570.832 443.65 572.52L443.75 576.69L457.59 576.34L457.51 573.34C457.484 572.143 457.834 570.968 458.51 569.98C459.222 568.894 460.058 567.894 461 567Z" fill="black"/>
<path d="M573.56 324.53C572.581 319.824 573.095 314.93 575.03 310.53C577.17 305.687 579.872 301.112 583.08 296.9C586.5 292.327 590.273 287.51 594.4 282.45C598.565 277.334 602.223 271.825 605.32 266C608.582 259.81 610.885 253.161 612.15 246.28C613.537 239.033 613.327 230.9 611.52 221.88C609.393 211.34 605.26 202.457 599.12 195.23C593.136 188.135 585.666 182.441 577.24 178.55C568.657 174.616 559.464 172.178 550.06 171.34C540.591 170.421 531.038 170.903 521.71 172.77C510.497 175.023 500.896 178.443 492.91 183.03C485.91 186.902 479.371 191.555 473.42 196.9C467.58 201.828 462.499 207.59 458.34 214L497.75 246.19C500.258 243.048 502.988 240.091 505.92 237.34C508.838 234.809 511.918 232.471 515.14 230.34C518.488 228.079 522.25 226.502 526.21 225.7C532.136 224.367 538.341 225.115 543.78 227.82C546.294 228.991 548.49 230.747 550.187 232.941C551.883 235.134 553.029 237.702 553.53 240.43C554.472 244.886 554.029 249.523 552.26 253.72C550.336 258.229 547.85 262.476 544.86 266.36C541.7 270.54 538.233 274.897 534.46 279.43C530.678 283.985 527.298 288.86 524.36 294C521.373 299.24 519.164 304.885 517.8 310.76C516.377 317.426 516.421 324.322 517.93 330.97L521.25 347.45L575.96 336.45L573.56 324.53Z" fill="black"/>
<path d="M580.305 358.222L528.247 368.846L538.333 418.267L590.391 407.643L580.305 358.222Z" fill="black"/>
<path d="M491.538 262.42L459.076 272.699L469.904 306.895L502.366 296.617L491.538 262.42Z" fill="black"/>
<path d="M246.57 153.73C244.75 150.779 242.206 148.342 239.18 146.65C236.35 145.107 233.217 144.202 230 144C226.718 143.804 223.427 144.172 220.27 145.09C213.621 147.002 207.681 150.827 203.19 156.09C201.408 158.246 199.872 160.594 198.61 163.09C197.335 165.428 196.415 167.942 195.88 170.55L212.7 176C213.115 174.665 213.627 173.361 214.23 172.1C214.864 170.913 215.569 169.764 216.34 168.66C217.144 167.51 218.163 166.525 219.34 165.76C221.102 164.571 223.224 164.033 225.34 164.24C226.304 164.302 227.239 164.594 228.067 165.092C228.896 165.589 229.592 166.278 230.1 167.1C230.965 168.427 231.405 169.986 231.36 171.57C231.299 173.263 231.03 174.942 230.56 176.57C230.06 178.33 229.483 180.18 228.83 182.12C228.174 184.074 227.692 186.082 227.39 188.12C227.085 190.199 227.085 192.311 227.39 194.39C227.766 196.733 228.65 198.965 229.98 200.93L233.13 205.86L249.5 195.38L247.23 191.83C246.315 190.427 245.864 188.773 245.94 187.1C246.022 185.257 246.324 183.431 246.84 181.66C247.367 179.74 247.983 177.7 248.69 175.54C249.395 173.356 249.887 171.109 250.16 168.83C250.436 166.407 250.345 163.956 249.89 161.56C249.297 158.761 248.169 156.103 246.57 153.73Z" fill="black"/>
<path d="M252.995 201.655L237.455 211.645L246.937 226.395L262.477 216.405L252.995 201.655Z" fill="black"/>
<path d="M35.63 279.21C32.5381 280.205 29.2119 280.205 26.12 279.21C22.7142 278.124 19.4483 276.641 16.39 274.79C13.07 272.79 9.57004 270.65 5.86004 268.24C2.11345 265.828 -1.85851 263.785 -5.99996 262.14C-10.3819 260.408 -15.001 259.349 -19.7 259C-25.2235 258.657 -30.7607 259.398 -36 261.18C-42.4558 263.079 -48.3117 266.613 -53 271.44C-57.3278 275.973 -60.6083 281.401 -62.61 287.34C-64.627 293.385 -65.5976 299.729 -65.48 306.1C-65.4165 312.523 -64.4056 318.902 -62.48 325.03C-60.4964 331.669 -57.4576 337.946 -53.48 343.62C-50.3661 348.032 -46.7669 352.081 -42.75 355.69C-39.0229 359.256 -34.7866 362.249 -30.18 364.57L-11.44 335.78C-13.7392 334.325 -15.9315 332.708 -18 330.94C-19.9156 329.17 -21.7097 327.272 -23.37 325.26C-25.1326 323.179 -26.465 320.769 -27.29 318.17C-28.6145 314.288 -28.5615 310.068 -27.14 306.22C-26.5381 304.446 -25.5192 302.843 -24.1688 301.545C-22.8184 300.246 -21.1761 299.291 -19.38 298.76C-16.4613 297.807 -13.321 297.768 -10.38 298.65C-7.22147 299.616 -4.19756 300.977 -1.37996 302.7C1.62004 304.51 4.83004 306.53 8.14004 308.7C11.4693 310.913 14.9861 312.831 18.65 314.43C22.3811 316.057 26.3292 317.131 30.37 317.62C34.9706 318.109 39.6224 317.587 44 316.09L54.82 312.66L43.45 276.74L35.63 279.21Z" fill="black"/>
<path d="M36.27 211.76C34.9654 209.663 33.1393 207.94 30.97 206.76C28.9428 205.669 26.699 205.04 24.4 204.92C22.0633 204.792 19.7221 205.07 17.48 205.74C15.214 206.392 13.0573 207.376 11.08 208.66C8.92113 210.006 6.99592 211.695 5.37999 213.66C4.12086 215.201 3.03751 216.878 2.14999 218.66C1.25741 220.331 0.61393 222.123 0.23999 223.98L12.24 227.79C12.5304 226.839 12.888 225.91 13.31 225.01C13.7527 224.159 14.2505 223.337 14.8 222.55C15.3645 221.722 16.0886 221.015 16.93 220.47C18.1716 219.618 19.6697 219.223 21.17 219.35C21.855 219.389 22.5209 219.59 23.1122 219.938C23.7036 220.286 24.2034 220.77 24.57 221.35C25.1907 222.293 25.5114 223.401 25.49 224.53C25.4598 225.745 25.275 226.952 24.94 228.12C24.6 229.37 24.19 230.69 23.74 232.12C23.2799 233.514 22.9453 234.946 22.74 236.4C22.5251 237.879 22.5251 239.381 22.74 240.86C23.0224 242.525 23.6639 244.108 24.62 245.5L26.89 249L38.49 241.45L36.86 238.94C36.2021 237.946 35.8701 236.771 35.91 235.58C35.9627 234.267 36.1674 232.965 36.52 231.7C36.89 230.33 37.32 228.88 37.81 227.33C38.2961 225.772 38.631 224.172 38.81 222.55C38.9916 220.821 38.9107 219.075 38.57 217.37C38.1774 215.368 37.396 213.462 36.27 211.76Z" fill="black"/>
<path d="M41.482 246.569L30.4404 253.747L37.2539 264.227L48.2955 257.048L41.482 246.569Z" fill="black"/>
<path d="M-22.76 -21.46C-31.3432 -25.3938 -40.5355 -27.8322 -49.94 -28.67C-59.4089 -29.5886 -68.9616 -29.1067 -78.29 -27.24C-89.4967 -24.9867 -99.0967 -21.5733 -107.09 -17C-109.54 -15.58 -111.83 -14.17 -114 -12.75V36.58L-102.25 46.18C-99.7419 43.0383 -97.0116 40.0807 -94.08 37.33C-91.1615 34.7994 -88.0817 32.4612 -84.86 30.33C-81.512 28.0686 -77.7498 26.4917 -73.79 25.69C-67.8637 24.3566 -61.659 25.1053 -56.22 27.81C-53.7063 28.981 -51.5094 30.7368 -49.8132 32.9306C-48.1169 35.1244 -46.9706 37.6925 -46.47 40.42C-45.5275 44.8758 -45.9707 49.5133 -47.74 53.71C-49.6634 58.2188 -52.1498 62.4658 -55.14 66.35C-58.3 70.53 -61.7667 74.8867 -65.54 79.42C-69.3226 83.9783 -72.702 88.8566 -75.64 94C-78.6264 99.2397 -80.8361 104.885 -82.2 110.76C-83.6227 117.426 -83.5784 124.322 -82.07 130.97L-78.75 147.45L-24.04 136.45L-26.44 124.59C-27.4185 119.884 -26.9046 114.99 -24.97 110.59C-22.8458 105.749 -20.1607 101.175 -16.97 96.96C-13.55 92.3934 -9.77666 87.5767 -5.65 82.51C-1.46389 77.3774 2.21027 71.8478 5.32 66C8.58174 59.8103 10.8847 53.1612 12.15 46.28C13.5433 39.0333 13.3333 30.9 11.52 21.88C9.39333 11.34 5.26 2.45668 -0.879997 -4.76999C-6.86319 -11.8684 -14.3325 -17.566 -22.76 -21.46Z" fill="black"/>
<path d="M88.68 72.25C86.664 73.7948 84.2181 74.6753 81.68 74.77C78.9609 74.8739 76.2396 74.6353 73.58 74.06C70.7267 73.46 67.7267 72.7533 64.58 71.94C61.4 71.1189 58.1543 70.5768 54.88 70.32C51.5314 70.0611 48.1628 70.2901 44.88 71C41.193 71.8637 37.7392 73.5223 34.76 75.86L27.28 81.44L45.8 106.29L51.18 102.29C53.3142 100.679 55.8974 99.7741 58.57 99.7C61.5083 99.6295 64.4447 99.9014 67.32 100.51C70.43 101.14 73.74 101.9 77.26 102.76C80.8142 103.635 84.4442 104.168 88.1 104.35C91.9848 104.511 95.8717 104.086 99.63 103.09C104.019 101.863 108.126 99.791 111.72 96.99C116.221 93.7732 119.816 89.4509 122.16 84.44C124.307 79.7513 125.393 74.6466 125.34 69.49C125.281 64.25 124.327 59.0587 122.52 54.14C120.732 49.1661 118.222 44.4825 115.07 40.24C111.737 35.6244 107.686 31.573 103.07 28.24C99.4633 25.6473 95.5753 23.4701 91.48 21.75C87.6203 19.9819 83.5185 18.7989 79.31 18.24L72.51 45.66C74.6823 46.1712 76.8146 46.8396 78.89 47.66C80.8539 48.5337 82.758 49.5358 84.59 50.66C86.5367 51.7951 88.2367 53.3081 89.59 55.11C91.6715 57.7683 92.7702 61.0644 92.7 64.44C92.6989 65.9676 92.3337 67.4729 91.6346 68.8312C90.9354 70.1894 89.9226 71.3614 88.68 72.25Z" fill="black"/>
<path d="M17.1196 89.979L-5.33301 106.709L12.2928 130.364L34.7454 113.634L17.1196 89.979Z" fill="black"/>
<path d="M46.5699 -46.27C44.7502 -49.2213 42.2064 -51.6584 39.1799 -53.35C36.3501 -54.8931 33.2167 -55.7976 29.9999 -56C26.7181 -56.1962 23.4269 -55.8276 20.2699 -54.91C13.6207 -52.9984 7.68074 -49.1729 3.18989 -43.91C1.40821 -41.7538 -0.127917 -39.406 -1.39011 -36.91C-2.6647 -34.5723 -3.58475 -32.0582 -4.12012 -29.45L12.6999 -24C13.1154 -25.3351 13.6267 -26.6385 14.2299 -27.9C14.8645 -29.0874 15.5691 -30.2361 16.3399 -31.34C17.1442 -32.4905 18.1628 -33.4751 19.3399 -34.24C21.1022 -35.429 23.224 -35.9665 25.3399 -35.76C26.304 -35.698 27.2393 -35.406 28.0674 -34.9084C28.8955 -34.4108 29.5925 -33.7221 30.0999 -32.9C30.9652 -31.573 31.4048 -30.0135 31.3599 -28.43C31.299 -26.7368 31.0304 -25.0576 30.5599 -23.43C30.0599 -21.67 29.4832 -19.82 28.8299 -17.88C28.1742 -15.9263 27.6923 -13.9185 27.3899 -11.88C27.0848 -9.80112 27.0848 -7.68885 27.3899 -5.60999C27.766 -3.26721 28.65 -1.03505 29.9799 0.930012L33.1299 5.86001L49.4999 -4.61999L47.2299 -8.16999C46.3154 -9.57279 45.8643 -11.2272 45.9399 -12.9C46.0218 -14.7427 46.3239 -16.569 46.8399 -18.34C47.3732 -20.26 47.9899 -22.3 48.6899 -24.46C49.3948 -26.6441 49.8871 -28.8912 50.1599 -31.17C50.4358 -33.5931 50.3448 -36.044 49.8899 -38.44C49.2965 -41.239 48.1693 -43.8975 46.5699 -46.27Z" fill="black"/>
<path d="M53.2651 2.255L37.7251 12.245L47.2075 26.9954L62.7475 17.0054L53.2651 2.255Z" fill="black"/>
<path d="M291.524 62.4342L259.062 72.713L269.891 106.91L302.352 96.6309L291.524 62.4342Z" fill="black"/>
<path d="M180.3 59C174.777 58.657 169.239 59.3975 164 61.18C157.544 63.0785 151.688 66.6127 147 71.44C142.672 75.9732 139.392 81.4009 137.39 87.34C135.373 93.3845 134.402 99.7289 134.52 106.1C134.584 112.523 135.594 118.902 137.52 125.03C139.504 131.669 142.542 137.946 146.52 143.62C149.634 148.032 153.233 152.081 157.25 155.69C160.977 159.256 165.213 162.249 169.82 164.57L188.56 135.78C186.275 134.324 184.096 132.706 182.04 130.94C180.124 129.17 178.33 127.272 176.67 125.26C174.907 123.179 173.575 120.769 172.75 118.17C171.425 114.288 171.478 110.068 172.9 106.22C173.502 104.446 174.521 102.843 175.871 101.545C177.222 100.246 178.864 99.2915 180.66 98.76C183.579 97.8068 186.719 97.7684 189.66 98.65C192.816 99.6001 195.84 100.944 198.66 102.65C201.66 104.46 204.87 106.48 208.18 108.65C211.509 110.863 215.026 112.781 218.69 114.38C222.421 116.007 226.369 117.081 230.41 117.57C234.994 118.069 239.631 117.564 244 116.09L254.82 112.66L243.45 76.74L235.66 79.21C232.568 80.2052 229.242 80.2052 226.15 79.21C222.744 78.1244 219.478 76.6408 216.42 74.79C213.1 72.79 209.6 70.65 205.89 68.24C202.134 65.8259 198.152 63.7829 194 62.14C189.618 60.4077 184.999 59.3491 180.3 59Z" fill="black"/>
<path d="M61.0001 167C62.0334 166.027 63.1601 165.027 64.3801 164C65.6158 162.932 66.7444 161.747 67.7501 160.46C68.8154 159.087 69.6652 157.559 70.2701 155.93C70.9565 154.008 71.2589 151.969 71.1601 149.93C71.1463 147.474 70.4988 145.063 69.2801 142.93C68.122 140.944 66.5413 139.237 64.6501 137.93C62.7245 136.602 60.5875 135.612 58.3301 135C56.0517 134.37 53.6934 134.077 51.3301 134.13C48.7879 134.148 46.2654 134.577 43.8601 135.4C41.984 136.048 40.1861 136.903 38.5001 137.95C36.8624 138.9 35.376 140.09 34.0901 141.48L42.3301 151.03C43.0737 150.368 43.866 149.763 44.7001 149.22C45.5224 148.731 46.374 148.294 47.2501 147.91C48.1683 147.504 49.1565 147.28 50.1601 147.25C51.6658 147.18 53.1494 147.632 54.3601 148.53C54.9236 148.921 55.3843 149.443 55.7029 150.051C56.0215 150.658 56.1887 151.334 56.1901 152.02C56.2325 153.149 55.9251 154.263 55.3101 155.21C54.6581 156.202 53.8818 157.106 53.0001 157.9C52.0001 158.79 51.0001 159.7 49.9001 160.65C48.7792 161.596 47.7451 162.64 46.8101 163.77C45.8547 164.92 45.073 166.203 44.4901 167.58C43.851 169.145 43.5642 170.832 43.6501 172.52L43.7501 176.69L57.5901 176.34L57.5101 173.34C57.4842 172.143 57.8339 170.968 58.5101 169.98C59.2221 168.894 60.0577 167.894 61.0001 167Z" fill="black"/>
<path d="M57.3342 182.28L44.1682 182.606L44.478 195.102L57.6439 194.776L57.3342 182.28Z" fill="black"/>
<path d="M231 6.75001C228.973 5.65879 226.729 5.0304 224.43 4.91001C222.093 4.78243 219.752 5.05985 217.51 5.73001C215.244 6.38165 213.087 7.36568 211.11 8.65001C208.951 9.99615 207.026 11.6849 205.41 13.65C204.151 15.1915 203.068 16.8685 202.18 18.65C201.287 20.3208 200.644 22.1131 200.27 23.97L212.27 27.78C212.56 26.8292 212.918 25.9002 213.34 25C213.783 24.1485 214.28 23.3268 214.83 22.54C215.395 21.7118 216.119 21.0047 216.96 20.46C218.202 19.6083 219.7 19.2126 221.2 19.34C221.885 19.3787 222.551 19.5804 223.142 19.9282C223.734 20.2761 224.233 20.7601 224.6 21.34C225.221 22.2828 225.541 23.3914 225.52 24.52C225.49 25.7352 225.305 26.9415 224.97 28.11C224.63 29.36 224.22 30.68 223.77 32.11C223.31 33.5041 222.975 34.9364 222.77 36.39C222.555 37.8689 222.555 39.3711 222.77 40.85C223.052 42.5148 223.694 44.0982 224.65 45.49L226.92 48.99L238.52 41.44L236.89 38.93C236.214 37.9417 235.865 36.7669 235.89 35.57C235.943 34.2575 236.147 32.9554 236.5 31.69C236.87 30.32 237.3 28.87 237.79 27.32C238.276 25.7625 238.611 24.1618 238.79 22.54C238.972 20.8111 238.891 19.0647 238.55 17.36C238.13 15.37 237.325 13.4812 236.18 11.8C234.915 9.69996 233.132 7.96082 231 6.75001Z" fill="black"/>
<path d="M241.492 46.5881L230.452 53.7687L237.267 64.2474L248.308 57.0668L241.492 46.5881Z" fill="black"/>
<path d="M179.361 -39.9578L127.289 -29.4583L137.256 19.9768L189.328 9.47727L179.361 -39.9578Z" fill="black"/>
<path d="M205.32 666C208.582 659.81 210.885 653.161 212.15 646.28C213.543 639.033 213.333 630.9 211.52 621.88C209.393 611.34 205.26 602.457 199.12 595.23C193.136 588.135 185.667 582.441 177.24 578.55C168.657 574.616 159.465 572.178 150.06 571.34C140.591 570.421 131.039 570.903 121.71 572.77C110.497 575.023 100.897 578.443 92.9101 583.03C85.9099 586.902 79.3714 591.555 73.4201 596.9C67.5803 601.828 62.4989 607.59 58.3401 614L97.7501 646.19C100.258 643.048 102.988 640.091 105.92 637.34C108.839 634.809 111.918 632.471 115.14 630.34C118.488 628.079 122.25 626.502 126.21 625.7C132.136 624.367 138.341 625.115 143.78 627.82C146.294 628.991 148.491 630.747 150.187 632.941C151.883 635.134 153.03 637.702 153.53 640.43C154.473 644.886 154.029 649.523 152.26 653.72C150.337 658.229 147.85 662.476 144.86 666.36C141.7 670.54 138.233 674.897 134.46 679.43C131.669 682.788 129.097 686.322 126.76 690.01H188.35C190.277 687.55 192.277 685.027 194.35 682.44C198.532 677.33 202.206 671.824 205.32 666Z" fill="black"/>
<path d="M228.81 582.13C228.154 584.084 227.672 586.091 227.37 588.13C227.065 590.209 227.065 592.321 227.37 594.4C227.746 596.743 228.63 598.975 229.96 600.94L233.11 605.87L249.48 595.39L247.21 591.84C246.296 590.437 245.844 588.783 245.92 587.11C246.002 585.267 246.304 583.441 246.82 581.67C247.347 579.75 247.963 577.71 248.67 575.55C249.375 573.366 249.867 571.119 250.14 568.84C250.416 566.417 250.325 563.966 249.87 561.57C249.29 558.77 248.176 556.108 246.59 553.73C244.77 550.779 242.226 548.342 239.2 546.65C236.364 545.104 233.224 544.199 230 544C226.718 543.804 223.427 544.172 220.27 545.09C217.09 545.974 214.057 547.322 211.27 549.09C208.244 550.978 205.543 553.342 203.27 556.09C201.488 558.246 199.952 560.594 198.69 563.09C197.415 565.428 196.495 567.942 195.96 570.55L212.7 576C213.115 574.665 213.627 573.361 214.23 572.1C214.865 570.912 215.569 569.764 216.34 568.66C217.144 567.509 218.163 566.525 219.34 565.76C221.102 564.571 223.224 564.033 225.34 564.24C226.304 564.302 227.239 564.594 228.067 565.092C228.896 565.589 229.593 566.278 230.1 567.1C230.965 568.427 231.405 569.986 231.36 571.57C231.299 573.263 231.03 574.942 230.56 576.57C230 578.33 229.46 580.19 228.81 582.13Z" fill="black"/>
<path d="M5.32 466C8.58174 459.81 10.8847 453.161 12.15 446.28C13.5433 439.033 13.3333 430.9 11.52 421.88C9.39333 411.34 5.26 402.457 -0.879997 395.23C-6.86423 388.135 -14.3335 382.441 -22.76 378.55C-31.3432 374.616 -40.5355 372.178 -49.94 371.34C-59.4089 370.421 -68.9616 370.903 -78.29 372.77C-89.4967 375.017 -99.0967 378.427 -107.09 383C-109.54 384.4 -111.83 385.81 -114 387.23V436.56L-102.25 446.16C-99.7419 443.018 -97.0116 440.061 -94.08 437.31C-91.1615 434.779 -88.0817 432.441 -84.86 430.31C-81.512 428.049 -77.7498 426.472 -73.79 425.67C-67.8637 424.337 -61.659 425.085 -56.22 427.79C-53.7063 428.961 -51.5094 430.717 -49.8132 432.911C-48.1169 435.104 -46.9706 437.673 -46.47 440.4C-45.5275 444.856 -45.9707 449.493 -47.74 453.69C-49.6634 458.199 -52.1498 462.446 -55.14 466.33C-58.3 470.51 -61.7667 474.867 -65.54 479.4C-69.3236 483.965 -72.703 488.85 -75.64 494C-78.6264 499.24 -80.8361 504.885 -82.2 510.76C-83.6227 517.426 -83.5784 524.322 -82.07 530.97L-78.75 547.45L-24.04 536.45L-26.44 524.59C-27.4185 519.884 -26.9046 514.99 -24.97 510.59C-22.8458 505.749 -20.1607 501.175 -16.97 496.96C-13.55 492.387 -9.77666 487.57 -5.65 482.51C-1.46389 477.377 2.21027 471.848 5.32 466Z" fill="black"/>
<path d="M17.0938 489.991L-5.35889 506.721L12.2669 530.376L34.7196 513.646L17.0938 489.991Z" fill="black"/>
<path d="M88.1301 504.33C92.0149 504.491 95.9018 504.066 99.6601 503.07C104.049 501.843 108.156 499.771 111.75 496.97C116.251 493.753 119.846 489.431 122.19 484.42C124.337 479.731 125.423 474.627 125.37 469.47C125.311 464.23 124.358 459.039 122.55 454.12C120.762 449.146 118.252 444.463 115.1 440.22C111.767 435.604 107.716 431.553 103.1 428.22C99.4934 425.627 95.6054 423.45 91.5101 421.73C87.6503 419.962 83.5486 418.779 79.3401 418.22L72.5401 445.64C74.7124 446.151 76.8447 446.82 78.9201 447.64C80.8821 448.517 82.786 449.519 84.6201 450.64C86.5648 451.782 88.2642 453.298 89.6201 455.1C91.7016 457.758 92.8003 461.054 92.7301 464.43C92.7424 465.968 92.3856 467.486 91.6896 468.857C90.9935 470.228 89.9786 471.412 88.7301 472.31C86.7141 473.855 84.2681 474.735 81.7301 474.83C79.011 474.934 76.2896 474.695 73.6301 474.12C70.7767 473.52 67.7767 472.813 64.6301 472C61.45 471.179 58.2044 470.637 54.9301 470.38C51.5814 470.121 48.2129 470.35 44.9301 471.06C41.2431 471.924 37.7892 473.582 34.8101 475.92L27.3301 481.5L45.8501 506.35L51.2301 502.35C53.3643 500.739 55.9474 499.834 58.6201 499.76C61.5583 499.69 64.4947 499.961 67.3701 500.57C70.4801 501.2 73.7901 501.96 77.3101 502.82C80.8604 503.667 84.4835 504.173 88.1301 504.33Z" fill="black"/>
<path d="M28.81 382.13C28.1543 384.084 27.6724 386.092 27.37 388.13C27.0649 390.209 27.0649 392.321 27.37 394.4C27.7461 396.743 28.6301 398.975 29.96 400.94L33.11 405.87L49.48 395.39L47.21 391.84C46.2955 390.437 45.8443 388.783 45.92 387.11C46.0019 385.267 46.304 383.441 46.82 381.67C47.3533 379.75 47.97 377.71 48.67 375.55C49.3749 373.366 49.8671 371.119 50.14 368.84C50.4159 366.417 50.3249 363.966 49.87 361.57C49.29 358.77 48.1764 356.109 46.59 353.73C44.7703 350.779 42.2265 348.342 39.2 346.65C36.3641 345.104 33.2236 344.2 30 344C26.7181 343.804 23.427 344.172 20.27 345.09C17.0898 345.974 14.0572 347.322 11.27 349.09C8.24431 350.978 5.54297 353.342 3.26996 356.09C1.48828 358.246 -0.0478392 360.594 -1.31004 363.09C-2.58462 365.428 -3.50467 367.942 -4.04004 370.55L12.7 376C13.1154 374.665 13.6268 373.361 14.23 372.1C14.8646 370.913 15.5691 369.764 16.34 368.66C17.1443 367.51 18.1629 366.525 19.34 365.76C21.1023 364.571 23.224 364.033 25.34 364.24C26.3041 364.302 27.2393 364.594 28.0675 365.092C28.8956 365.589 29.5926 366.278 30.1 367.1C30.9653 368.427 31.4049 369.986 31.36 371.57C31.2991 373.263 31.0304 374.942 30.56 376.57C30 378.33 29.46 380.19 28.81 382.13Z" fill="black"/>
<path d="M53.5552 402.642L37.9751 412.618L47.4437 427.406L63.0238 417.431L53.5552 402.642Z" fill="black"/>
<path d="M291.552 462.434L259.091 472.712L269.919 506.909L302.38 496.63L291.552 462.434Z" fill="black"/>
<path d="M180.64 498.76C183.559 497.807 186.699 497.768 189.64 498.65C192.799 499.616 195.822 500.977 198.64 502.7C201.64 504.51 204.85 506.53 208.16 508.7C211.489 510.913 215.006 512.831 218.67 514.43C222.401 516.057 226.349 517.131 230.39 517.62C234.984 518.106 239.629 517.584 244 516.09L254.82 512.66L243.45 476.74L235.66 479.21C232.568 480.205 229.242 480.205 226.15 479.21C222.744 478.124 219.478 476.641 216.42 474.79C213.1 472.79 209.6 470.65 205.89 468.24C202.134 465.826 198.152 463.783 194 462.14C189.618 460.408 184.999 459.349 180.3 459C174.777 458.657 169.239 459.398 164 461.18C157.544 463.079 151.688 466.613 147 471.44C142.67 475.972 139.389 481.4 137.39 487.34C135.373 493.385 134.402 499.729 134.52 506.1C134.584 512.523 135.594 518.902 137.52 525.03C139.504 531.669 142.542 537.946 146.52 543.62C149.634 548.032 153.233 552.081 157.25 555.69C160.977 559.256 165.213 562.249 169.82 564.57L188.56 535.78C186.275 534.324 184.096 532.706 182.04 530.94C180.124 529.17 178.33 527.272 176.67 525.26C174.907 523.179 173.575 520.769 172.75 518.17C171.425 514.288 171.478 510.068 172.9 506.22C173.5 504.448 174.516 502.846 175.863 501.548C177.209 500.25 178.848 499.294 180.64 498.76Z" fill="black"/>
<path d="M61.0001 567C62.0334 566.027 63.1601 565.027 64.3801 564C65.6158 562.932 66.7444 561.747 67.7501 560.46C68.8154 559.087 69.6652 557.559 70.2701 555.93C70.9565 554.008 71.2589 551.969 71.1601 549.93C71.1463 547.474 70.4988 545.063 69.2801 542.93C68.122 540.944 66.5413 539.237 64.6501 537.93C62.7245 536.603 60.5875 535.612 58.3301 535C56.0517 534.37 53.6934 534.077 51.3301 534.13C48.7879 534.148 46.2654 534.577 43.8601 535.4C41.984 536.048 40.1861 536.903 38.5001 537.95C36.8624 538.9 35.376 540.09 34.0901 541.48L42.3301 551.03C43.0737 550.368 43.866 549.763 44.7001 549.22C45.5224 548.731 46.374 548.294 47.2501 547.91C48.1683 547.504 49.1565 547.28 50.1601 547.25C51.6658 547.18 53.1494 547.632 54.3601 548.53C54.9236 548.921 55.3843 549.443 55.7029 550.051C56.0215 550.658 56.1887 551.334 56.1901 552.02C56.2325 553.149 55.9251 554.263 55.3101 555.21C54.6581 556.202 53.8818 557.106 53.0001 557.9C52.0001 558.79 51.0001 559.7 49.9001 560.65C48.7792 561.596 47.7451 562.64 46.8101 563.77C45.8547 564.92 45.073 566.204 44.4901 567.58C43.851 569.145 43.5642 570.832 43.6501 572.52L43.7501 576.69L57.5901 576.34L57.5101 573.34C57.4842 572.143 57.8339 570.968 58.5101 569.98C59.2221 568.894 60.0577 567.894 61.0001 567Z" fill="black"/>
<path d="M223.77 432.07C223.31 433.464 222.975 434.896 222.77 436.35C222.555 437.829 222.555 439.331 222.77 440.81C223.052 442.475 223.694 444.058 224.65 445.45L226.92 448.95L238.52 441.4L236.89 438.89C236.214 437.902 235.865 436.727 235.89 435.53C235.943 434.217 236.147 432.915 236.5 431.65C236.87 430.28 237.3 428.83 237.79 427.28C238.276 425.722 238.611 424.122 238.79 422.5C238.972 420.771 238.891 419.025 238.55 417.32C238.13 415.33 237.325 413.441 236.18 411.76C234.875 409.663 233.049 407.94 230.88 406.76C228.853 405.669 226.609 405.04 224.31 404.92C221.973 404.792 219.632 405.07 217.39 405.74C215.124 406.392 212.967 407.376 210.99 408.66C208.831 410.006 206.906 411.695 205.29 413.66C204.031 415.201 202.947 416.878 202.06 418.66C201.167 420.331 200.524 422.123 200.15 423.98L212.15 427.79C212.44 426.839 212.798 425.91 213.22 425.01C213.663 424.159 214.16 423.337 214.71 422.55C215.274 421.722 215.999 421.015 216.84 420.47C218.082 419.618 219.58 419.223 221.08 419.35C221.765 419.389 222.431 419.59 223.022 419.938C223.613 420.286 224.113 420.77 224.48 421.35C225.101 422.293 225.421 423.401 225.4 424.53C225.37 425.745 225.185 426.951 224.85 428.12C224.63 429.36 224.22 430.68 223.77 432.07Z" fill="black"/>
<path d="M241.502 446.514L230.462 453.695L237.277 464.173L248.317 456.993L241.502 446.514Z" fill="black"/>
<path d="M173.56 324.53C172.582 319.824 173.095 314.93 175.03 310.53C177.17 305.687 179.872 301.112 183.08 296.9C186.5 292.327 190.273 287.51 194.4 282.45C198.566 277.334 202.223 271.825 205.32 266C208.582 259.81 210.885 253.161 212.15 246.28C213.543 239.033 213.333 230.9 211.52 221.88C209.393 211.34 205.26 202.457 199.12 195.23C193.136 188.135 185.667 182.441 177.24 178.55C168.657 174.616 159.465 172.178 150.06 171.34C140.591 170.421 131.039 170.903 121.71 172.77C110.497 175.023 100.897 178.443 92.9101 183.03C85.9099 186.902 79.3714 191.555 73.4201 196.9C67.5803 201.828 62.4989 207.59 58.3401 214L97.7501 246.19C100.258 243.048 102.988 240.091 105.92 237.34C108.839 234.809 111.918 232.471 115.14 230.34C118.488 228.079 122.25 226.502 126.21 225.7C132.136 224.367 138.341 225.115 143.78 227.82C146.294 228.991 148.491 230.747 150.187 232.941C151.883 235.134 153.03 237.702 153.53 240.43C154.473 244.886 154.029 249.523 152.26 253.72C150.337 258.229 147.85 262.476 144.86 266.36C141.7 270.54 138.233 274.897 134.46 279.43C130.678 283.985 127.299 288.86 124.36 294C121.374 299.24 119.164 304.885 117.8 310.76C116.377 317.426 116.422 324.322 117.93 330.97L121.25 347.45L175.96 336.45L173.56 324.53Z" fill="black"/>
<path d="M180.425 359.202L128.367 369.826L138.453 419.247L190.511 408.623L180.425 359.202Z" fill="black"/>
<path d="M288.13 304.33C292.015 304.491 295.901 304.066 299.66 303.07C304.048 301.843 308.155 299.771 311.75 296.97C316.25 293.753 319.846 289.431 322.19 284.42C324.337 279.731 325.422 274.627 325.37 269.47C325.311 264.23 324.357 259.039 322.55 254.12C320.762 249.146 318.252 244.463 315.1 240.22C311.767 235.604 307.715 231.553 303.1 228.22C299.493 225.627 295.605 223.45 291.51 221.73C287.65 219.962 283.548 218.779 279.34 218.22L272.54 245.64C274.712 246.151 276.844 246.82 278.92 247.64C280.884 248.514 282.788 249.516 284.62 250.64C286.548 251.781 288.231 253.293 289.57 255.09C291.651 257.748 292.75 261.044 292.68 264.42C292.692 265.958 292.335 267.476 291.639 268.847C290.943 270.218 289.928 271.402 288.68 272.3C286.664 273.845 284.218 274.725 281.68 274.82C278.961 274.924 276.239 274.685 273.58 274.11C270.726 273.51 267.726 272.803 264.58 271.99C261.4 271.169 258.154 270.627 254.88 270.37C251.531 270.111 248.163 270.34 244.88 271.05C241.193 271.914 237.739 273.572 234.76 275.91L227.28 281.49L245.8 306.34L251.18 302.34C253.314 300.729 255.897 299.824 258.57 299.75C261.508 299.68 264.444 299.951 267.32 300.56C270.43 301.19 273.74 301.95 277.26 302.81C280.826 303.664 284.466 304.173 288.13 304.33Z" fill="black"/>
<path d="M217.113 289.988L194.66 306.718L212.286 330.373L234.739 313.643L217.113 289.988Z" fill="black"/>
<path d="M261 367C262.027 366.027 263.153 365.027 264.38 364C265.616 362.932 266.744 361.747 267.75 360.46C268.815 359.087 269.665 357.559 270.27 355.93C270.956 354.007 271.259 351.969 271.16 349.93C271.146 347.474 270.499 345.063 269.28 342.93C268.122 340.944 266.541 339.237 264.65 337.93C262.724 336.602 260.587 335.612 258.33 335C256.051 334.37 253.693 334.077 251.33 334.13C248.788 334.148 246.265 334.577 243.86 335.4C241.984 336.047 240.186 336.903 238.5 337.95C236.862 338.9 235.376 340.09 234.09 341.48L242.33 351.03C243.073 350.368 243.866 349.763 244.7 349.22C245.522 348.731 246.374 348.294 247.25 347.91C248.168 347.504 249.156 347.28 250.16 347.25C251.666 347.18 253.149 347.632 254.36 348.53C254.923 348.921 255.384 349.443 255.703 350.051C256.021 350.658 256.188 351.334 256.19 352.02C256.232 353.149 255.925 354.263 255.31 355.21C254.658 356.202 253.882 357.106 253 357.9C252.05 358.79 251 359.7 249.9 360.65C248.779 361.596 247.745 362.64 246.81 363.77C245.854 364.92 245.073 366.203 244.49 367.58C243.851 369.145 243.564 370.832 243.65 372.52L243.75 376.69L257.59 376.34L257.51 373.34C257.484 372.143 257.834 370.968 258.51 369.98C259.222 368.894 260.057 367.894 261 367Z" fill="black"/>
<path d="M257.359 382.262L244.193 382.589L244.503 395.085L257.669 394.758L257.359 382.262Z" fill="black"/>
<path d="M91.5484 262.448L59.0869 272.727L69.915 306.923L102.377 296.645L91.5484 262.448Z" fill="black"/>
</g>
<defs>
<clipPath id="clip0">
<rect width="800" height="800" fill="white" transform="translate(-114 -110)"/>
</clipPath>
</defs>
</svg>
