<svg width="118" height="40" viewBox="0 0 118 40" fill="none" xmlns="http://www.w3.org/2000/svg">
<g opacity="0.1">
<path d="M49.651 10.7685H57.3324C61.294 10.7685 63.9631 12.9647 63.9631 16.474C63.9631 20.4919 60.9175 22.3416 57.2538 22.3416H53.6687V29.2262H49.651V10.7685ZM53.6687 19.1564H56.7424C58.6024 19.1564 59.9229 18.4355 59.9229 16.5579C59.9229 14.6579 58.5237 13.9314 56.8267 13.9314H53.6744V19.1564H53.6687Z" fill="white"/>
<path d="M64.8565 19.1283C64.8565 17.7368 64.8565 16.5298 64.8284 15.3507H68.627C68.6775 15.6748 68.7337 17.0383 68.7337 17.7871C69.3519 16.2056 70.8353 15.0545 73.2066 15.0265V18.698C70.4026 18.6197 68.7337 19.3685 68.7337 23.1741V29.2316H64.8565V19.1283Z" fill="white"/>
<path d="M85.9566 25.2138C85.9566 26.527 85.9566 28.0023 85.9847 29.2317H82.2142C82.158 28.8573 82.1355 28.1084 82.1074 27.6223C81.2702 29.0137 80.0621 29.5502 78.2527 29.5502C75.4262 29.5502 73.6169 27.8346 73.6169 24.4035V15.3507H77.4716V23.6323C77.4716 25.1579 77.9549 26.4208 79.6294 26.4208C81.3826 26.4208 82.1074 25.482 82.1074 22.7494V15.3507H85.9622V25.2138H85.9566ZM75.6117 13.1266V9.72341H78.7078V13.1266H75.6117ZM80.9162 13.1266V9.72341H84.0123V13.1266H80.9162Z" fill="white"/>
<path d="M90.4182 15.3508C91.7387 20.0672 92.8457 24.1689 93.1098 25.8286H93.1379C93.5425 23.5487 94.8911 19.3687 96.1048 15.3508H99.9596L95.0259 29.2318H90.9857L86.2432 15.3508H90.4182Z" fill="white"/>
<path d="M100.224 13.1043V9.67321H104.101V13.1043H100.224ZM100.224 15.3508H104.101V29.2317H100.224V15.3508Z" fill="white"/>
<path d="M104.5 15.3508H106.657V11.6012H110.512V15.3508H113.26V18.2455H110.512V25.1077C110.512 26.1527 110.838 26.5551 111.996 26.5551C112.209 26.5551 112.591 26.5551 112.855 26.5271V29.1536C112.102 29.4218 111.052 29.4218 110.271 29.4218C107.551 29.4218 106.657 27.9745 106.657 25.538V18.2455H104.5V15.3508Z" fill="white"/>
<path d="M117.143 13.3222C117.143 14.3113 116.486 14.9819 115.519 14.9819C114.603 14.9819 113.918 14.2722 113.918 13.3222C113.918 12.3722 114.575 11.6793 115.519 11.6793C116.502 11.6849 117.143 12.4225 117.143 13.3222ZM114.328 13.3222C114.328 14.0431 114.85 14.5963 115.519 14.5963C116.3 14.5963 116.733 14.1046 116.733 13.3334C116.733 12.5622 116.244 12.0537 115.519 12.0537C114.766 12.0537 114.328 12.6237 114.328 13.3222ZM114.845 14.0822V12.5064H115.62C115.946 12.5064 116.3 12.5902 116.3 12.9646C116.3 13.1658 116.176 13.2943 116.042 13.3334C116.205 13.3893 116.25 13.5234 116.25 13.7413C116.25 13.8196 116.261 13.9984 116.266 14.0822H115.761C115.733 14.0152 115.733 13.8252 115.733 13.7581C115.733 13.5793 115.665 13.5122 115.485 13.5122H115.345V14.0822H114.845ZM115.356 13.1713H115.558C115.693 13.1713 115.761 13.1211 115.761 12.9981C115.761 12.864 115.682 12.8584 115.542 12.8584H115.362V13.1713H115.356Z" fill="white"/>
<path d="M32.6137 11.6457H32.2878V12.0368H32.5912C32.7373 12.0368 32.8272 11.9586 32.8272 11.8301C32.8272 11.7183 32.7429 11.6457 32.6137 11.6457Z" fill="white"/>
<path d="M32.5688 11.2209C32.3047 11.2209 32.0855 11.3159 31.9114 11.5059C31.7709 11.6624 31.6866 11.8692 31.6866 12.0759C31.6866 12.5621 32.0743 12.9477 32.5576 12.9477C33.0352 12.9477 33.4285 12.5621 33.4285 12.0815C33.4229 11.6121 33.0296 11.2209 32.5688 11.2209ZM32.8385 12.6738L32.6138 12.1765H32.2878V12.6738H32.1136V11.5003H32.6138C32.8498 11.5003 33.0127 11.64 33.0127 11.8356C33.0127 11.9753 32.9284 12.0871 32.7879 12.1374L33.0296 12.6738H32.8385Z" fill="white"/>
<path d="M37.9856 0H2.23643C1.00021 0 0 0.994691 0 2.22408V37.7759C0 39.0053 1.00021 40 2.23643 40H37.9856C39.2218 40 40.222 39.0053 40.222 37.7759V2.22408C40.222 0.994691 39.2218 0 37.9856 0ZM27.8261 19.9665C27.3316 19.9665 26.9046 19.6032 26.8428 19.1003C26.4551 16.0156 24.1343 13.5233 21.0719 12.903C19.8694 12.6572 18.6163 12.7186 17.4531 13.0763C16.9249 13.2383 16.3686 12.9478 16.2057 12.4281C16.0427 11.9084 16.3349 11.3551 16.8575 11.1931C18.341 10.7348 19.9368 10.6566 21.4708 10.9695C25.3706 11.7631 28.3206 14.9371 28.8151 18.86C28.8825 19.4021 28.4948 19.8938 27.9554 19.9609C27.9104 19.9609 27.8711 19.9665 27.8261 19.9665ZM27.7362 24.4482C26.4045 26.8511 24.0894 28.5331 21.3753 29.0584C21.3079 29.0696 21.2461 29.0752 21.1843 29.0752C20.7179 29.0752 20.3021 28.7455 20.2122 28.2761C20.1054 27.7396 20.4594 27.2199 20.9988 27.1193C23.1285 26.7058 24.9491 25.3814 25.9943 23.4926C26.2584 23.012 26.8596 22.8388 27.3429 23.1014C27.8261 23.3697 28.0003 23.9732 27.7362 24.4482ZM12.1992 29.3881C12.0025 29.5949 11.7384 29.7066 11.4687 29.7066C11.2271 29.7066 10.9855 29.6172 10.7944 29.444C8.13094 26.9796 6.61938 23.4982 6.6531 19.8826C6.72053 12.8248 12.5195 7.1249 19.5997 7.1249C19.6446 7.1249 19.684 7.1249 19.7233 7.1249C21.5327 7.14166 23.2746 7.52165 24.9098 8.2537C25.4099 8.47723 25.6347 9.06398 25.4099 9.56133C25.1851 10.0587 24.5951 10.2822 24.095 10.0587C22.7127 9.43839 21.2348 9.11987 19.7064 9.1031C19.6727 9.1031 19.6334 9.1031 19.5997 9.1031C13.604 9.1031 8.69848 13.9257 8.63667 19.8994C8.60857 22.9617 9.88412 25.9067 12.143 27.9911C12.5476 28.3599 12.5701 28.9857 12.1992 29.3881ZM12.6319 22.1347C12.7949 22.66 12.497 23.2076 11.9745 23.3697C11.8789 23.3976 11.7778 23.4144 11.6823 23.4144C11.2552 23.4144 10.8675 23.1405 10.7326 22.7158C10.2718 21.2406 10.1988 19.6591 10.5135 18.1391C10.7888 16.8092 11.3395 15.5798 12.1486 14.4957C12.4746 14.0598 13.0983 13.9648 13.5366 14.2945C13.9805 14.6186 14.0704 15.2389 13.7389 15.6748C13.1039 16.5298 12.6712 17.4909 12.4521 18.5359C12.2161 19.7374 12.2723 20.9779 12.6319 22.1347ZM18.9759 23.04C20.6617 23.3864 22.3137 22.3023 22.6565 20.6259C22.8251 19.8156 22.6677 18.9885 22.207 18.2956C21.7462 17.6027 21.0494 17.1277 20.229 16.9656C19.4142 16.798 18.5826 16.9545 17.8858 17.4127C17.189 17.8709 16.7114 18.5638 16.5485 19.3797C16.481 19.6982 16.4586 20.0447 16.481 20.4415V31.059C16.481 31.7687 15.9079 32.3386 15.1942 32.3386C14.4862 32.3386 13.9074 31.7687 13.9074 31.059V20.5365C13.8794 19.9329 13.9187 19.3853 14.0254 18.86C14.3289 17.3792 15.1999 16.1051 16.4698 15.2724C17.7397 14.4398 19.2569 14.1492 20.746 14.4566C22.2351 14.7583 23.5162 15.6245 24.3535 16.8874C25.1907 18.1503 25.4829 19.6591 25.1739 21.14C24.5389 24.1967 21.527 26.1693 18.4534 25.5434C17.7566 25.4037 17.307 24.7276 17.4531 24.0346C17.5992 23.3417 18.2792 22.8947 18.9759 23.04ZM18.4084 19.7374C18.5376 19.1059 19.1614 18.698 19.7963 18.8265C20.4313 18.955 20.8415 19.5753 20.7123 20.2068C20.583 20.8382 19.9593 21.2462 19.3243 21.1176C18.6894 20.9891 18.2792 20.3688 18.4084 19.7374ZM28.6746 29.1702C26.2134 31.5619 22.9543 32.8751 19.4929 32.8751C19.2176 32.8751 18.8748 32.8583 18.4758 32.8248C17.9252 32.7801 17.5206 32.2995 17.5711 31.7575C17.6161 31.2154 18.0993 30.8131 18.6444 30.8578C18.9816 30.8857 19.2794 30.9025 19.4985 30.9025C25.5447 30.9025 30.5177 26.0576 30.5739 20.1062C30.5964 17.5189 29.6973 15.0042 28.034 13.026C27.68 12.6069 27.7362 11.981 28.1577 11.6345C28.5791 11.2825 29.2028 11.3384 29.5568 11.7575C31.5179 14.0989 32.5856 17.0718 32.5575 20.1229C32.5181 23.5541 31.1414 26.7673 28.6746 29.1702ZM32.5575 13.093C31.9899 13.093 31.5404 12.6404 31.5404 12.076C31.5404 11.5172 32.0012 11.0757 32.5687 11.0757C33.1138 11.0757 33.5689 11.5339 33.5689 12.0816C33.5689 12.6404 33.1138 13.093 32.5575 13.093Z" fill="white"/>
</g>
</svg>
