<?xml version="1.0" encoding="utf-8"?>
<!-- Generator: Adobe Illustrator 23.0.0, SVG Export Plug-In . SVG Version: 6.00 Build 0)  -->
<svg version="1.1" id="Layer_1" xmlns="http://www.w3.org/2000/svg" xmlns:xlink="http://www.w3.org/1999/xlink" x="0px" y="0px"
	 viewBox="0 0 202 134" style="enable-background:new 0 0 202 134;" xml:space="preserve">
<style type="text/css">
	.st0{fill:#73AF00;}
	.st1{fill:#F5F5F5;}
	.st2{fill:#FF4B55;}
	.st3{fill:#FFD250;}
	.st4{fill:#00C3A0;}
	.st5{fill:#00AADC;}
	.st6{fill:#732D37;}
	.st7{fill:#AAD264;}
	.st8{fill:#874150;}
	.st9{fill:#783C46;}
	.st10{fill:#FFE15A;}
	.st11{fill:#FFB478;}
	.st12{fill:#9B4B5A;}
</style>
<g>
	<path class="st0" d="M67.7,133H4.4c-1.9,0-3.4-1.6-3.4-3.5V4.5C1,2.6,2.5,1,4.4,1h63.2V133z"/>
	<rect x="67.7" y="1" class="st1" width="66.7" height="132"/>
	<path class="st2" d="M197.6,133h-63.2V1h63.2c1.9,0,3.4,1.6,3.4,3.5v125.1C201,131.4,199.5,133,197.6,133z"/>
	<polygon class="st3" points="106.9,70.1 101,73.1 101,76.1 104,76.1 	"/>
	<g>
		<path class="st4" d="M101,83.6c-0.8,0-1.5-0.7-1.5-1.5v-6c0-0.8,0.7-1.5,1.5-1.5s1.5,0.7,1.5,1.5v6
			C102.5,82.9,101.8,83.6,101,83.6z"/>
		<path class="st4" d="M101,77.6c-5.8,0-11.5-2.3-15.9-6.4c-0.6-0.6-0.6-1.5-0.1-2.1c0.6-0.6,1.5-0.6,2.1-0.1
			c3.8,3.6,8.8,5.6,13.9,5.6c5.1,0,10-2,13.9-5.6c0.6-0.6,1.5-0.5,2.1,0.1c0.6,0.6,0.5,1.6-0.1,2.1C112.5,75.3,106.8,77.6,101,77.6z
			"/>
	</g>
	<path class="st5" d="M101,83.6c-3.8,0-7.5-1.1-10.7-3.2l1.6-2.5c5.4,3.6,12.7,3.6,18.1,0l1.6,2.5C108.5,82.5,104.8,83.6,101,83.6z"
		/>
	<polygon class="st6" points="98.6,63.4 95.4,68.5 94.8,70.2 103.4,68.2 	"/>
	<path class="st7" d="M91.9,71.8c-3.9,0-8.6-3.3-9.9-10.8l2.9-0.5c1,6.2,4.8,8.3,7.1,8.3c0.7,0,1.4-0.3,1.5-0.8
		c0.1-0.6,0.1-0.7-1.5-1.3c-0.8-0.3-1.8-0.6-2.5-1.4c-2.7-3.1,1-6.4,2.7-8c0.3-0.3,0.4-0.5,0.4-0.6c-0.1-0.3-0.7-0.6-1.3-0.6
		c-1.9,0-3.3-1.1-3.7-2.8c-0.4-1.8,0.4-3.7,1.9-4.5l1.4,2.7c-0.4,0.2-0.5,0.7-0.4,1.1c0,0.2,0.1,0.5,0.8,0.5c1.8,0,3.6,1.1,4.1,2.6
		c0.2,0.6,0.6,2.3-1.2,3.9c-2,1.8-3.1,3.1-2.5,3.8c0.1,0.2,0.8,0.4,1.2,0.5c1.3,0.5,3.8,1.3,3.5,4.4c-0.2,2-2,3.3-4.3,3.4
		C92,71.8,92,71.8,91.9,71.8z"/>
	<path class="st8" d="M104,55.1c0,0,3-6-3-9c0,0,20.8-3,17.8,24l0,0c-2-1.6-4.8-4.4-5.9-6.7l-9-5.2V55.1L104,55.1z"/>
	<path class="st6" d="M101,61.1l14.9,9c0,0,0,0-5.9,3l-8.9-9V61.1z"/>
	<path class="st9" d="M95.1,52.1L95.1,52.1c1.6,0,3,1.3,3,3l0,0c-1.8,1.8-2.2,4.5-1.1,6.8l0.7,1.4c0.3,0.6,0.6,1.1,1.1,1.5l8.3,8.3
		V69c0-5.2-1.2-10.2-3.5-14.9l0,0c-1.5-3-4.6-5-8-5h-0.4L95.1,52.1L95.1,52.1L95.1,52.1L95.1,52.1z"/>
	<path class="st3" d="M95.1,49.1l-3,3v3c0,0,3.5-1.8,4.7-2.4c0.8-0.4,0.7-1.4,0.2-1.8C96.6,50.6,95.1,49.1,95.1,49.1z"/>
	<path class="st7" d="M101,89.6c-13.9,0-25.3-11.4-25.3-25.5h3c0,12.4,10,22.5,22.3,22.5s22.3-10.1,22.3-22.5h3
		C126.3,78.2,114.9,89.6,101,89.6z"/>
	<g>
		<ellipse class="st10" cx="78.9" cy="73" rx="2" ry="2"/>
		<ellipse class="st10" cx="83.3" cy="80.2" rx="2" ry="2"/>
		<ellipse class="st10" cx="90.6" cy="85.6" rx="2" ry="2"/>
		<ellipse class="st10" cx="123.4" cy="73" rx="2" ry="2"/>
		<ellipse class="st10" cx="118.9" cy="80.2" rx="2" ry="2"/>
		<ellipse class="st10" cx="111.6" cy="85.6" rx="2" ry="2"/>
	</g>
	<path class="st11" d="M102.5,85.1h-3c-1.6,0-3-1.3-3-3l0,0c0-1.7,1.3-3,3-3h3c1.6,0,3,1.3,3,3l0,0
		C105.5,83.7,104.1,85.1,102.5,85.1z"/>
	<path class="st12" d="M113,63.4c1,2.9,3.1,5.6,5.9,6.7l0,0c3-27-17.8-24-17.8-24C115.9,46.1,113,63.4,113,63.4z"/>
</g>
</svg>
