<svg id="Group_1" data-name="Group 1" xmlns="http://www.w3.org/2000/svg" width="32" height="23" viewBox="0 0 32 23">
  <rect id="Rectangle_3" data-name="Rectangle 3" width="32" height="23" rx="3" fill="#f7f7f7"/>
  <path id="Path_1" data-name="Path 1" d="M6.314,13.933H4.376a.276.276,0,0,0-.266.245L3.326,19.54a.17.17,0,0,0,.16.2h.925a.276.276,0,0,0,.266-.246l.211-1.446a.276.276,0,0,1,.266-.246h.614a2.041,2.041,0,0,0,2.206-1.987,1.711,1.711,0,0,0-.247-1.35A1.725,1.725,0,0,0,6.314,13.933Zm.224,1.958c-.106.75-.637.75-1.151.75H5.094l.205-1.4a.166.166,0,0,1,.16-.147h.134c.35,0,.68,0,.851.215A.741.741,0,0,1,6.538,15.892Z" fill="#253b80"/>
  <path id="Path_2" data-name="Path 2" d="M12.107,15.867h-.928a.166.166,0,0,0-.16.147l-.041.28-.065-.1a1.268,1.268,0,0,0-1.1-.42,2.2,2.2,0,0,0-2.072,2.014,2,2,0,0,0,.346,1.538,1.4,1.4,0,0,0,1.169.509,1.728,1.728,0,0,0,1.285-.573l-.041.278a.17.17,0,0,0,.159.2H11.5a.276.276,0,0,0,.266-.245l.5-3.427A.17.17,0,0,0,12.107,15.867Zm-1.293,1.949a1.061,1.061,0,0,1-1.047.956.756.756,0,0,1-.623-.27A.9.9,0,0,1,9,17.8a1.067,1.067,0,0,1,1.04-.964.756.756,0,0,1,.619.273A.918.918,0,0,1,10.813,17.816Z" fill="#253b80"/>
  <path id="Path_3" data-name="Path 3" d="M17.049,15.868h-.933a.265.265,0,0,0-.223.128l-1.286,2.044-.545-1.964a.274.274,0,0,0-.258-.207h-.916a.173.173,0,0,0-.153.231l1.027,3.253L12.8,20.822a.175.175,0,0,0,.132.275h.932a.264.264,0,0,0,.221-.125l3.1-4.831A.175.175,0,0,0,17.049,15.868Z" fill="#253b80"/>
  <path id="Path_4" data-name="Path 4" d="M20.136,13.933H18.2a.276.276,0,0,0-.266.245l-.784,5.362a.17.17,0,0,0,.159.2H18.3a.194.194,0,0,0,.186-.172l.222-1.52a.276.276,0,0,1,.266-.246h.613A2.041,2.041,0,0,0,21.8,15.817a1.71,1.71,0,0,0-.247-1.35A1.723,1.723,0,0,0,20.136,13.933Zm.224,1.958c-.106.75-.637.75-1.151.75h-.292l.205-1.4a.165.165,0,0,1,.159-.147h.134c.35,0,.68,0,.851.215A.741.741,0,0,1,20.36,15.892Z" fill="#179bd7"/>
  <path id="Path_5" data-name="Path 5" d="M25.93,15.867H25a.165.165,0,0,0-.159.147l-.041.28-.065-.1a1.267,1.267,0,0,0-1.1-.42,2.2,2.2,0,0,0-2.072,2.014,2,2,0,0,0,.345,1.538,1.4,1.4,0,0,0,1.169.509,1.728,1.728,0,0,0,1.285-.573l-.041.278a.171.171,0,0,0,.16.2h.836a.276.276,0,0,0,.266-.245l.5-3.427A.171.171,0,0,0,25.93,15.867Zm-1.294,1.949a1.06,1.06,0,0,1-1.047.956.756.756,0,0,1-.623-.27.905.905,0,0,1-.146-.7,1.067,1.067,0,0,1,1.04-.964.756.756,0,0,1,.619.273A.914.914,0,0,1,24.636,17.816Z" fill="#179bd7"/>
  <path id="Path_6" data-name="Path 6" d="M27.024,14.08l-.8,5.46a.17.17,0,0,0,.159.2h.8a.276.276,0,0,0,.266-.246l.784-5.362a.171.171,0,0,0-.159-.2h-.9A.166.166,0,0,0,27.024,14.08Z" fill="#179bd7"/>
  <path id="Path_7" data-name="Path 7" d="M15.039,13.105l.2-1.311-.441-.011h-2.1l1.462-9.677A.129.129,0,0,1,14.2,2.03.117.117,0,0,1,14.273,2h3.548a3.073,3.073,0,0,1,2.415.761,1.76,1.76,0,0,1,.387.757,2.849,2.849,0,0,1,0,1.044l0,.03v.267l.2.118a1.4,1.4,0,0,1,.4.321,1.524,1.524,0,0,1,.327.765,3.378,3.378,0,0,1-.047,1.11,4.022,4.022,0,0,1-.436,1.257,2.548,2.548,0,0,1-.69.79,2.745,2.745,0,0,1-.93.438,4.452,4.452,0,0,1-1.162.14h-.276a.816.816,0,0,0-.54.207.882.882,0,0,0-.281.524l-.021.118-.35,2.311-.016.085a.074.074,0,0,1-.022.049.057.057,0,0,1-.036.014Z" fill="#253b80"/>
  <path id="Path_8" data-name="Path 8" d="M20.708,5.332q-.014.093-.033.19a3.383,3.383,0,0,1-3.737,2.951h-.946a.46.46,0,0,0-.454.391l-.484,3.086-.137.875a.243.243,0,0,0,.239.281h1.677a.4.4,0,0,0,.4-.342l.016-.086.316-2.014.02-.111a.4.4,0,0,1,.4-.343h.251A2.96,2.96,0,0,0,21.5,7.629a2.207,2.207,0,0,0-.336-1.942A1.6,1.6,0,0,0,20.708,5.332Z" fill="#179bd7"/>
  <path id="Path_9" data-name="Path 9" d="M19.989,4.4c-.07-.022-.142-.042-.215-.06s-.15-.033-.229-.046a5.253,5.253,0,0,0-.9-.07H15.935a.406.406,0,0,0-.187.046.463.463,0,0,0-.241.348L14.93,8.549l-.017.115a.506.506,0,0,1,.488-.449h1.016a3.693,3.693,0,0,0,4.014-3.393c.014-.075.025-.147.035-.218a2.348,2.348,0,0,0-.375-.17Z" fill="#222d65"/>
  <path id="Path_10" data-name="Path 10" d="M15.916,4.868a.433.433,0,0,1,.219-.326A.36.36,0,0,1,16.3,4.5H18.77a4.623,4.623,0,0,1,.813.066q.107.019.208.044t.2.056l.093.032a2.127,2.127,0,0,1,.341.16,2.418,2.418,0,0,0-.427-2.009A2.935,2.935,0,0,0,17.6,2H14.45a.467.467,0,0,0-.444.422L12.7,11.648a.292.292,0,0,0,.267.347H14.9l.488-3.436Z" fill="#253b80"/>
</svg>
