<svg width="41" height="40" viewBox="0 0 41 40" fill="none" xmlns="http://www.w3.org/2000/svg">
<path d="M32.6138 11.6456H32.2878V12.0368H32.5913C32.7374 12.0368 32.8273 11.9586 32.8273 11.83C32.8273 11.7183 32.743 11.6456 32.6138 11.6456Z" fill="#131313"/>
<path d="M32.5687 11.2209C32.3046 11.2209 32.0855 11.3159 31.9113 11.5059C31.7708 11.6624 31.6865 11.8692 31.6865 12.0759C31.6865 12.5621 32.0742 12.9477 32.5575 12.9477C33.0351 12.9477 33.4285 12.5621 33.4285 12.0815C33.4228 11.6121 33.0295 11.2209 32.5687 11.2209ZM32.8384 12.6739L32.6137 12.1765H32.2878V12.6739H32.1136V11.5004H32.6137C32.8497 11.5004 33.0126 11.6401 33.0126 11.8356C33.0126 11.9753 32.9284 12.0871 32.7879 12.1374L33.0295 12.6739H32.8384Z" fill="#131313"/>
<path d="M37.9856 0H2.23643C1.00021 0 0 0.994691 0 2.22408V37.7759C0 39.0053 1.00021 40 2.23643 40H37.9856C39.2218 40 40.222 39.0053 40.222 37.7759V2.22408C40.222 0.994691 39.2218 0 37.9856 0ZM27.8261 19.9665C27.3316 19.9665 26.9046 19.6032 26.8428 19.1003C26.4551 16.0156 24.1343 13.5233 21.0719 12.903C19.8694 12.6572 18.6163 12.7186 17.4531 13.0763C16.9249 13.2383 16.3686 12.9478 16.2057 12.4281C16.0427 11.9084 16.3349 11.3551 16.8575 11.1931C18.341 10.7348 19.9368 10.6566 21.4708 10.9695C25.3706 11.7631 28.3206 14.9371 28.8151 18.86C28.8825 19.4021 28.4948 19.8938 27.9554 19.9609C27.9104 19.9609 27.8711 19.9665 27.8261 19.9665ZM27.7362 24.4482C26.4045 26.8511 24.0894 28.5331 21.3753 29.0584C21.3079 29.0696 21.2461 29.0752 21.1843 29.0752C20.7179 29.0752 20.3021 28.7455 20.2122 28.2761C20.1054 27.7396 20.4594 27.2199 20.9988 27.1193C23.1285 26.7058 24.9491 25.3814 25.9943 23.4926C26.2584 23.012 26.8596 22.8388 27.3429 23.1014C27.8261 23.3697 28.0003 23.9732 27.7362 24.4482ZM12.1992 29.3881C12.0025 29.5949 11.7384 29.7066 11.4687 29.7066C11.2271 29.7066 10.9855 29.6172 10.7944 29.444C8.13094 26.9796 6.61938 23.4982 6.6531 19.8826C6.72053 12.8248 12.5195 7.1249 19.5997 7.1249C19.6446 7.1249 19.684 7.1249 19.7233 7.1249C21.5327 7.14166 23.2746 7.52165 24.9098 8.2537C25.4099 8.47723 25.6347 9.06398 25.4099 9.56133C25.1851 10.0587 24.5951 10.2822 24.095 10.0587C22.7127 9.43839 21.2348 9.11987 19.7064 9.1031C19.6727 9.1031 19.6334 9.1031 19.5997 9.1031C13.604 9.1031 8.69848 13.9257 8.63667 19.8994C8.60857 22.9617 9.88412 25.9067 12.143 27.9911C12.5476 28.3599 12.5701 28.9858 12.1992 29.3881ZM12.6319 22.1347C12.7949 22.66 12.497 23.2076 11.9745 23.3697C11.8789 23.3976 11.7778 23.4144 11.6823 23.4144C11.2552 23.4144 10.8675 23.1405 10.7326 22.7158C10.2718 21.2406 10.1988 19.6591 10.5135 18.1391C10.7888 16.8092 11.3395 15.5798 12.1486 14.4957C12.4746 14.0598 13.0983 13.9648 13.5366 14.2945C13.9805 14.6186 14.0704 15.2389 13.7389 15.6748C13.1039 16.5298 12.6712 17.4909 12.4521 18.5359C12.2161 19.7374 12.2723 20.9779 12.6319 22.1347ZM18.9759 23.04C20.6617 23.3864 22.3137 22.3023 22.6565 20.6259C22.8251 19.8156 22.6677 18.9885 22.207 18.2956C21.7462 17.6027 21.0494 17.1277 20.229 16.9656C19.4142 16.798 18.5826 16.9545 17.8858 17.4127C17.189 17.8709 16.7114 18.5638 16.5485 19.3797C16.481 19.6982 16.4586 20.0447 16.481 20.4415V20.5085V31.059C16.481 31.7687 15.9079 32.3386 15.1942 32.3386C14.4862 32.3386 13.9074 31.7687 13.9074 31.059V20.5365C13.8794 19.9329 13.9187 19.3853 14.0254 18.86C14.3289 17.3792 15.1999 16.1051 16.4698 15.2724C17.7397 14.4398 19.2569 14.1492 20.746 14.4566C22.2351 14.7583 23.5162 15.6245 24.3535 16.8874C25.1907 18.1503 25.4829 19.6591 25.1739 21.14C24.5389 24.1967 21.527 26.1693 18.4534 25.5434C17.7566 25.4037 17.307 24.7276 17.4531 24.0346C17.5992 23.3417 18.2792 22.8947 18.9759 23.04ZM18.4084 19.7374C18.5376 19.1059 19.1614 18.698 19.7963 18.8265C20.4313 18.955 20.8415 19.5753 20.7123 20.2068C20.583 20.8382 19.9593 21.2462 19.3243 21.1176C18.6894 20.9891 18.2792 20.3688 18.4084 19.7374ZM28.6746 29.1702C26.2134 31.5619 22.9543 32.8751 19.4929 32.8751C19.2176 32.8751 18.8748 32.8583 18.4758 32.8248C17.9252 32.7801 17.5206 32.2995 17.5711 31.7575C17.6161 31.2154 18.0993 30.8131 18.6444 30.8578C18.9816 30.8857 19.2794 30.9025 19.4985 30.9025C25.5448 30.9025 30.5177 26.0576 30.5739 20.1062C30.5964 17.5189 29.6973 15.0042 28.034 13.026C27.68 12.6069 27.7362 11.981 28.1577 11.6345C28.5791 11.2825 29.2028 11.3384 29.5568 11.7575C31.5179 14.0989 32.5856 17.0718 32.5575 20.1229C32.5181 23.5541 31.1414 26.7673 28.6746 29.1702ZM32.5575 13.093C31.9899 13.093 31.5404 12.6404 31.5404 12.076C31.5404 11.5172 32.0012 11.0757 32.5687 11.0757C33.1138 11.0757 33.5689 11.5339 33.5689 12.0816C33.5689 12.6404 33.1138 13.093 32.5575 13.093Z" fill="#131313"/>
</svg>
