<?xml version="1.0" encoding="utf-8"?>
<!-- Generator: Adobe Illustrator 23.0.0, SVG Export Plug-In . SVG Version: 6.00 Build 0)  -->
<svg version="1.1" id="Layer_1" xmlns="http://www.w3.org/2000/svg" xmlns:xlink="http://www.w3.org/1999/xlink" x="0px" y="0px"
	 viewBox="0 0 202 134" style="enable-background:new 0 0 202 134;" xml:space="preserve">
<style type="text/css">
	.st0{fill:#41479B;}
	.st1{fill:#F5F5F5;}
	.st2{fill:#FF4B55;}
</style>
<g>
	<path class="st0" d="M197.6,133H4.4c-1.9,0-3.4-1.6-3.4-3.5V4.5C1,2.6,2.5,1,4.4,1h193.1c1.9,0,3.4,1.6,3.4,3.5v125.1
		C201,131.4,199.5,133,197.6,133z"/>
	<path class="st1" d="M201,4.5c0-1.9-1.5-3.5-3.4-3.5h-15.4l-63.9,42.2V1H83.8v42.2L19.9,1H4.4C2.5,1,1,2.6,1,4.5v9l54.8,36.2H1
		v34.7h54.8L1,120.5v9c0,1.9,1.5,3.5,3.4,3.5h15.4l63.9-42.2V133h34.5V90.8l63.9,42.2h15.4c1.9,0,3.4-1.6,3.4-3.5v-9l-54.8-36.2H201
		V49.6h-54.8L201,13.5V4.5z"/>
	<g>
		<polygon class="st2" points="201,56.6 111.3,56.6 111.3,1 90.7,1 90.7,56.6 1,56.6 1,77.4 90.7,77.4 90.7,133 111.3,133 
			111.3,77.4 201,77.4 		"/>
		<path class="st2" d="M70.9,84.4L1.1,130c0.2,1.7,1.6,3,3.4,3h4.7l74.4-48.6L70.9,84.4L70.9,84.4z"/>
		<path class="st2" d="M136.3,84.4h-12.7l74.3,48.6c1.7-0.2,3.1-1.6,3.1-3.4v-2.9L136.3,84.4z"/>
		<path class="st2" d="M1,8.3l63.2,41.3h12.7L3,1.3C1.8,1.9,1,3.1,1,4.5V8.3z"/>
		<path class="st2" d="M130.9,49.6l70-45.8c-0.3-1.6-1.6-2.9-3.3-2.9h-4.9l-74.4,48.6H130.9z"/>
	</g>
</g>
</svg>
