<?xml version="1.0" encoding="utf-8"?>
<!-- Generator: Adobe Illustrator 23.0.0, SVG Export Plug-In . SVG Version: 6.00 Build 0)  -->
<svg version="1.1" id="Capa_1" xmlns="http://www.w3.org/2000/svg" xmlns:xlink="http://www.w3.org/1999/xlink" x="0px" y="0px"
	 viewBox="0 0 202 134" style="enable-background:new 0 0 202 134;" xml:space="preserve">
<style type="text/css">
	.st0{fill:#DB4655;}
	.st1{fill:#F2F2F6;}
	.st2{fill:#3F3F8F;}
	.st3{fill:#FFFFFF;}
</style>
<g>
	<g>
		<path class="st0" d="M202,6.7v120.6c0,3.7-2.9,6.7-6.5,6.7h-39.1v0H45.6l0,0H6.5c-3.6,0-6.5-3-6.5-6.7V6.7C0,3,2.9,0,6.5,0h189
			C199.1,0,202,3,202,6.7z"/>
	</g>
	<path class="st1" d="M101.1,19.1H202v19.1H101.1V19.1z"/>
	<path class="st1" d="M101.1,57.5H202v19.1H101.1V57.5z"/>
	<path class="st2" d="M104.2,0v76.6H6.5l0-0.2H0V6.7C0,3,2.9,0,6.5,0H104.2z"/>
	<path class="st3" d="M13.1,15.7c-1.8,0-3.3-1.5-3.3-3.3s1.4-3.3,3.2-3.3l0,0c1.8,0,3.3,1.5,3.3,3.3S14.9,15.7,13.1,15.7z"/>
	<path class="st3" d="M13.1,42.1c-1.8,0-3.3-1.5-3.3-3.3s1.4-3.3,3.2-3.3l0,0c1.8,0,3.3,1.5,3.3,3.3S14.9,42.1,13.1,42.1z"/>
	<path class="st3" d="M13.1,68.5c-1.8,0-3.3-1.5-3.3-3.3c0-1.8,1.4-3.3,3.2-3.3l0,0c1.8,0,3.3,1.5,3.3,3.3
		C16.3,67,14.9,68.5,13.1,68.5z"/>
	<path class="st1" d="M13.1,28.9c-1.8,0-3.3-1.5-3.3-3.3s1.4-3.3,3.2-3.3l0,0c1.8,0,3.3,1.5,3.3,3.3S14.9,28.9,13.1,28.9z"/>
	<path class="st1" d="M13.1,55.3c-1.8,0-3.3-1.5-3.3-3.3s1.4-3.3,3.2-3.3l0,0c1.8,0,3.3,1.5,3.3,3.3S14.9,55.3,13.1,55.3z"/>
	<path class="st3" d="M91.3,14.9c-1.8,0-3.3-1.5-3.3-3.3s1.4-3.3,3.2-3.3l0,0c1.8,0,3.3,1.5,3.3,3.3S93.1,14.9,91.3,14.9L91.3,14.9z
		"/>
	<path class="st3" d="M91.3,41.7c-1.8,0-3.3-1.5-3.3-3.3s1.4-3.3,3.2-3.3l0,0c1.8,0,3.3,1.5,3.3,3.3S93.1,41.7,91.3,41.7L91.3,41.7z
		"/>
	<path class="st3" d="M91.3,68.5c-1.8,0-3.3-1.5-3.3-3.3s1.4-3.3,3.2-3.3l0,0c1.8,0,3.3,1.5,3.3,3.3C94.5,67,93.1,68.5,91.3,68.5
		L91.3,68.5z"/>
	<g>
		<path class="st1" d="M91.3,28.3c-1.8,0-3.3-1.5-3.3-3.3s1.4-3.3,3.2-3.3l0,0c1.8,0,3.3,1.5,3.3,3.3S93.1,28.3,91.3,28.3L91.3,28.3
			z"/>
		<path class="st1" d="M91.3,55.1c-1.8,0-3.3-1.5-3.3-3.3s1.4-3.3,3.2-3.3l0,0c1.8,0,3.3,1.5,3.3,3.3S93.1,55.1,91.3,55.1L91.3,55.1
			z"/>
		<path class="st1" d="M32.6,14.9c-1.8,0-3.3-1.5-3.3-3.3s1.4-3.3,3.2-3.3l0,0c1.8,0,3.3,1.5,3.3,3.3S34.4,14.9,32.6,14.9z"/>
		<path class="st1" d="M32.6,41.7c-1.8,0-3.3-1.5-3.3-3.3s1.4-3.3,3.2-3.3l0,0c1.8,0,3.3,1.5,3.3,3.3C35.9,40.2,34.4,41.7,32.6,41.7
			z"/>
		<path class="st1" d="M32.6,68.5c-1.8,0-3.3-1.5-3.3-3.3s1.4-3.3,3.2-3.3l0,0c1.8,0,3.3,1.5,3.3,3.3C35.8,67,34.4,68.5,32.6,68.5z"
			/>
	</g>
	<path class="st3" d="M32.6,28.9c-1.8,0-3.3-1.5-3.3-3.3s1.4-3.3,3.2-3.3l0,0c1.8,0,3.3,1.5,3.3,3.3C35.9,27.4,34.4,28.9,32.6,28.9z
		"/>
	<path class="st3" d="M32.6,55.3c-1.8,0-3.3-1.5-3.3-3.3s1.4-3.3,3.2-3.3l0,0c1.8,0,3.3,1.5,3.3,3.3S34.4,55.3,32.6,55.3z"/>
	<path class="st3" d="M22.8,22.3c-1.8,0-3.3-1.5-3.3-3.3s1.4-3.3,3.2-3.3l0,0c1.8,0,3.3,1.5,3.3,3.3C26.1,20.8,24.6,22.3,22.8,22.3z
		"/>
	<path class="st3" d="M22.8,48.7c-1.8,0-3.3-1.5-3.3-3.3s1.4-3.3,3.2-3.3l0,0c1.8,0,3.3,1.5,3.3,3.3C26.1,47.2,24.6,48.7,22.8,48.7z
		"/>
	<path class="st1" d="M22.8,35.5c-1.8,0-3.3-1.5-3.3-3.3s1.4-3.3,3.2-3.3l0,0c1.8,0,3.3,1.5,3.3,3.3S24.6,35.5,22.8,35.5z"/>
	<path class="st1" d="M22.8,61.9c-1.8,0-3.3-1.5-3.3-3.3s1.4-3.3,3.2-3.3l0,0c1.8,0,3.3,1.5,3.3,3.3S24.6,61.9,22.8,61.9z"/>
	<path class="st3" d="M52.2,14.9c-1.8,0-3.3-1.5-3.3-3.3s1.4-3.3,3.2-3.3l0,0c1.8,0,3.3,1.5,3.3,3.3S54,14.9,52.2,14.9L52.2,14.9z"
		/>
	<path class="st3" d="M52.2,41.7c-1.8,0-3.3-1.5-3.3-3.3s1.4-3.3,3.2-3.3l0,0c1.8,0,3.3,1.5,3.3,3.3S54,41.7,52.2,41.7L52.2,41.7z"
		/>
	<path class="st3" d="M52.2,68.5c-1.8,0-3.3-1.5-3.3-3.3s1.4-3.3,3.2-3.3l0,0c1.8,0,3.3,1.5,3.3,3.3C55.4,67,54,68.5,52.2,68.5
		L52.2,68.5z"/>
	<path class="st1" d="M52.2,28.3c-1.8,0-3.3-1.5-3.3-3.3s1.4-3.3,3.2-3.3l0,0c1.8,0,3.3,1.5,3.3,3.3S54,28.3,52.2,28.3L52.2,28.3z"
		/>
	<path class="st1" d="M52.2,55.1c-1.8,0-3.3-1.5-3.3-3.3s1.4-3.3,3.2-3.3l0,0c1.8,0,3.3,1.5,3.3,3.3S54,55.1,52.2,55.1L52.2,55.1z"
		/>
	<path class="st1" d="M42.4,21.6c-1.8,0-3.3-1.5-3.3-3.3s1.4-3.3,3.2-3.3l0,0c1.8,0,3.3,1.5,3.3,3.3C45.6,20.1,44.2,21.6,42.4,21.6z
		"/>
	<path class="st1" d="M42.4,48.4c-1.8,0-3.3-1.5-3.3-3.3s1.4-3.3,3.2-3.3l0,0c1.8,0,3.3,1.5,3.3,3.3C45.6,46.9,44.2,48.4,42.4,48.4z
		"/>
	<path class="st3" d="M42.4,35c-1.8,0-3.3-1.5-3.3-3.3s1.4-3.3,3.2-3.3l0,0c1.8,0,3.3,1.5,3.3,3.3C45.6,33.5,44.2,35,42.4,35z"/>
	<path class="st3" d="M42.4,61.8c-1.8,0-3.3-1.5-3.3-3.3s1.4-3.3,3.2-3.3l0,0c1.8,0,3.3,1.5,3.3,3.3C45.6,60.3,44.2,61.8,42.4,61.8z
		"/>
	<path class="st1" d="M71.7,14.9c-1.8,0-3.3-1.5-3.3-3.3s1.4-3.3,3.2-3.3l0,0c1.8,0,3.3,1.5,3.3,3.3S73.5,14.9,71.7,14.9L71.7,14.9z
		"/>
	<path class="st1" d="M71.7,41.7c-1.8,0-3.3-1.5-3.3-3.3s1.4-3.3,3.2-3.3l0,0c1.8,0,3.3,1.5,3.3,3.3C74.9,40.2,73.5,41.7,71.7,41.7
		L71.7,41.7z"/>
	<path class="st1" d="M71.7,68.5c-1.8,0-3.3-1.5-3.3-3.3s1.4-3.3,3.2-3.3l0,0c1.8,0,3.3,1.5,3.3,3.3C74.9,67,73.5,68.5,71.7,68.5
		L71.7,68.5z"/>
	<path class="st3" d="M71.7,28.3c-1.8,0-3.3-1.5-3.3-3.3s1.4-3.3,3.2-3.3l0,0c1.8,0,3.3,1.5,3.3,3.3C74.9,26.8,73.5,28.3,71.7,28.3
		L71.7,28.3z"/>
	<path class="st3" d="M71.7,55.1c-1.8,0-3.3-1.5-3.3-3.3s1.4-3.3,3.2-3.3l0,0c1.8,0,3.3,1.5,3.3,3.3C74.9,53.6,73.5,55.1,71.7,55.1
		L71.7,55.1z"/>
	<path class="st3" d="M61.9,21.6c-1.8,0-3.3-1.5-3.3-3.3S60,15,61.8,15l0,0c1.8,0,3.3,1.5,3.3,3.3C65.2,20.1,63.7,21.6,61.9,21.6
		L61.9,21.6z"/>
	<path class="st3" d="M61.9,48.4c-1.8,0-3.3-1.5-3.3-3.3s1.4-3.3,3.2-3.3l0,0c1.8,0,3.3,1.5,3.3,3.3C65.2,46.9,63.7,48.4,61.9,48.4
		L61.9,48.4z"/>
	<path class="st1" d="M61.9,35c-1.8,0-3.3-1.5-3.3-3.3s1.4-3.3,3.2-3.3l0,0c1.8,0,3.3,1.5,3.3,3.3C65.2,33.5,63.7,35,61.9,35
		L61.9,35z"/>
	<path class="st1" d="M61.9,61.8c-1.8,0-3.3-1.5-3.3-3.3s1.4-3.3,3.2-3.3l0,0c1.8,0,3.3,1.5,3.3,3.3C65.2,60.3,63.7,61.8,61.9,61.8
		L61.9,61.8z"/>
	<path class="st1" d="M81.5,21.6c-1.8,0-3.3-1.5-3.3-3.3s1.4-3.3,3.2-3.3l0,0c1.8,0,3.3,1.5,3.3,3.3C84.7,20.1,83.3,21.6,81.5,21.6
		L81.5,21.6z"/>
	<path class="st1" d="M81.5,48.4c-1.8,0-3.3-1.5-3.3-3.3s1.4-3.3,3.2-3.3l0,0c1.8,0,3.3,1.5,3.3,3.3S83.3,48.4,81.5,48.4L81.5,48.4z
		"/>
	<path class="st3" d="M81.5,35c-1.8,0-3.3-1.5-3.3-3.3s1.4-3.3,3.2-3.3l0,0c1.8,0,3.3,1.5,3.3,3.3S83.3,35,81.5,35L81.5,35z"/>
	<path class="st3" d="M81.5,61.8c-1.8,0-3.3-1.5-3.3-3.3s1.4-3.3,3.2-3.3l0,0c1.8,0,3.3,1.5,3.3,3.3S83.3,61.8,81.5,61.8L81.5,61.8z
		"/>
	<rect y="95.7" class="st1" width="202" height="19.1"/>
</g>
</svg>
