<svg height="134" viewBox="0 0 566 134" width="566" xmlns="http://www.w3.org/2000/svg" xmlns:xlink="http://www.w3.org/1999/xlink"><linearGradient id="a" gradientUnits="userSpaceOnUse" x1="282.807" x2="282.807" y1="0" y2="133.928"><stop offset="0" stop-color="#fff"/><stop offset="1" stop-color="#f0f0f0"/></linearGradient><linearGradient id="b" gradientUnits="userSpaceOnUse" x1="67.573" x2="67.573" y1="50.269" y2="124.716"><stop offset="0" stop-color="#89c13d"/><stop offset="1" stop-color="#9ad304"/></linearGradient><linearGradient id="c" gradientUnits="userSpaceOnUse" x1="67.573" x2="67.573" y1="9.558" y2="74.81"><stop offset="0" stop-color="#93cc45"/><stop offset="1" stop-color="#b2d455"/></linearGradient><path d="m0 0h565.614v133.929h-565.614z" fill="url(#a)"/><path d="m0 0h565.614v133.929h-565.614z" fill="none" stroke="#bdbcbd" stroke-width="2.926"/><path d="m67.139 74.81c-27.252 0-50.197-9.61-57.145-22.699v72.604h115.157v-74.446c-5.687 14.02-29.496 24.541-58.012 24.541z" fill="url(#b)"/><path d="m9.994 9.558v25.945 16.607c6.948 13.089 29.893 22.699 57.145 22.699 28.516 0 52.325-10.521 58.012-24.541v-12.923-27.787z" fill="url(#c)"/><path d="m72.371 73.419c0-2.622-2.125-4.744-4.744-4.744-2.62 0-4.745 2.122-4.745 4.744 0 1.985 1.219 3.679 2.948 4.387v3.178h-2.692v3.337h8.978v-3.337h-2.693v-3.178c1.728-.706 2.948-2.401 2.948-4.387z" fill="#fff"/><path d="m89.839 32.127c-14.454.198-20.331-4.407-22.266-6.52-1.937 2.112-7.811 6.718-22.266 6.52 0 0-7.146 0-12.308 0 .795 14.237 2.383 41.102 3.844 56.426 0 0 6.843 11.313 30.73 22.329 23.888-11.017 30.731-22.329 30.731-22.329 1.458-15.324 3.048-42.188 3.844-56.426-5.165 0-12.309 0-12.309 0zm-2.721 56.937h-38.985v-25.645h5.652v-7.312c0-7.631 6.208-13.838 13.841-13.838 7.629 0 13.837 6.207 13.837 13.838v7.312h5.653v25.645z" fill="#fff"/><path d="m67.627 47.119c-4.955 0-8.989 4.031-8.989 8.988v7.312h17.975v-7.312c-.001-4.957-4.031-8.988-8.986-8.988z" fill="#fff"/><g fill="#565f6b"><path d="m166.059 79.959-6.944-.083-8.199-29.19 6.486.078c3.413 13.479 5.217 21.068 5.414 22.768l.076.002c.647-3.1 1.535-6.592 2.663-10.479l3.559-12.152 6.257.075z"/><path d="m193.853 62.636-.064 5.395-9.881-.117-.082 6.818 11.027.131-.065 5.438-16.94-.202.347-29.088 16.405.195-.064 5.438-10.492-.125-.071 5.999z"/><path d="m198.831 80.349.342-28.699c2.167-.405 4.828-.59 7.982-.553 3.891.047 6.68.808 8.367 2.281s2.514 3.561 2.481 6.266c-.02 1.611-.466 3.063-1.339 4.354-.874 1.293-1.995 2.197-3.362 2.713l-.002.173c1.595.695 2.73 2.491 3.408 5.392 1.249 5.225 1.928 7.994 2.038 8.313l-6.028-.072c-.497-1.084-1.08-3.35-1.75-6.799-.335-1.729-.805-2.942-1.407-3.641-.603-.699-1.578-1.056-2.925-1.072l-1.832-.021-.136 11.438zm6.126-24.14-.095 7.983 2.441.029c1.475.018 2.643-.346 3.505-1.092.861-.744 1.299-1.757 1.314-3.038.015-1.279-.358-2.272-1.118-2.98-.761-.707-1.848-1.068-3.259-1.085-1.386-.017-2.315.044-2.788.183z"/><path d="m222.373 51.538 5.914.07-.347 29.089-5.914-.07z"/><path d="m233.052 80.757.347-29.088 16.253.193-.064 5.438-10.34-.123-.079 6.604 9.653.115-.064 5.395-9.653-.115-.139 11.652z"/><path d="m254.116 51.916 5.914.07-.347 29.089-5.914-.07z"/><path d="m280.801 63.672-.064 5.396-9.882-.117-.081 6.818 11.027.131-.065 5.438-16.94-.201.347-29.089 16.406.196-.064 5.438-10.492-.125-.072 5.998z"/><path d="m285.779 81.256.341-28.569c2.548-.4 5.273-.586 8.173-.551 5.48.065 9.398 1.411 11.752 4.035 2.354 2.626 3.506 6.031 3.456 10.217-.06 4.95-1.463 8.768-4.21 11.453-2.748 2.688-6.951 3.997-12.61 3.93-2.621-.031-4.92-.203-6.902-.515zm6.198-23.752-.226 18.945c.329.091 1.041.142 2.135.155 2.938.034 5.221-.811 6.85-2.539 1.632-1.73 2.465-4.227 2.504-7.493.036-2.992-.672-5.28-2.121-6.865-1.451-1.585-3.556-2.396-6.315-2.429-1.158-.013-2.099.062-2.827.226z"/><path d="m344.876 82.091-6.867-.082c-.566-.611-1.143-1.322-1.73-2.136-2.005 1.702-4.431 2.536-7.279 2.502-2.875-.034-5.117-.848-6.726-2.442-1.608-1.594-2.399-3.565-2.372-5.91.044-3.652 1.743-6.424 5.098-8.313l.002-.172c-1.302-1.699-1.941-3.549-1.917-5.549.024-2.1.765-3.903 2.221-5.411 1.455-1.507 3.379-2.247 5.769-2.22 2.086.025 3.789.676 5.109 1.949 1.32 1.275 1.968 2.926 1.943 4.955-.037 3.079-1.782 5.547-5.238 7.404l-.04.129 4.284 5.447c1.117-1.914 1.922-4.293 2.414-7.137l5.265.063c-.82 4.796-2.327 8.49-4.521 11.084 1.99 2.585 3.518 4.531 4.585 5.839zm-17.205-13.154c-1.413 1.119-2.128 2.464-2.146 4.031-.016 1.295.375 2.377 1.173 3.252.796.872 1.85 1.315 3.16 1.331 1.476.018 2.689-.456 3.643-1.423-1.233-1.382-3.175-3.779-5.83-7.191zm2.544-5.365c1.039-.751 1.781-1.439 2.229-2.066.446-.629.674-1.339.684-2.129.01-.777-.192-1.448-.605-2.016-.414-.564-.964-.853-1.65-.861-.725-.008-1.31.271-1.755.833s-.674 1.255-.684 2.073c-.017 1.353.577 2.74 1.781 4.166z"/><path d="m354.62 80.826 1.287-5.467c2.184 1.293 4.414 1.952 6.691 1.979 1.31.016 2.333-.253 3.071-.806.738-.552 1.112-1.316 1.124-2.295.011-.879-.311-1.615-.966-2.214-.654-.597-1.791-1.216-3.411-1.853-4.889-1.9-7.308-4.82-7.261-8.763.03-2.546.958-4.633 2.784-6.259 1.825-1.623 4.238-2.42 7.24-2.384 2.62.031 4.903.563 6.85 1.593l-1.399 5.291c-1.781-.97-3.646-1.466-5.591-1.489-1.196-.015-2.133.233-2.813.741-.68.51-1.026 1.183-1.036 2.018-.009.764.267 1.418.826 1.963.561.547 1.909 1.264 4.048 2.151 2.367.979 4.092 2.175 5.175 3.592 1.084 1.415 1.612 3.166 1.588 5.251-.032 2.676-.985 4.839-2.861 6.484-1.878 1.646-4.482 2.449-7.813 2.41-2.849-.032-5.361-.68-7.533-1.943z"/><path d="m392.813 65.008-.064 5.396-9.883-.118-.081 6.818 11.026.132-.064 5.438-16.94-.202.347-29.088 16.406.195-.064 5.438-10.492-.125-.072 5.999z"/><path d="m416.596 76.904.854 5.189c-1.766.871-4.072 1.288-6.921 1.254-4.337-.051-7.727-1.425-10.167-4.123-2.443-2.697-3.638-6.255-3.585-10.672.056-4.662 1.448-8.379 4.178-11.152 2.729-2.771 6.219-4.133 10.467-4.082 2.861.033 5.08.506 6.66 1.418l-1.283 5.25c-1.582-.797-3.307-1.205-5.176-1.228-2.582-.03-4.655.794-6.22 2.472-1.566 1.679-2.367 4.016-2.402 7.008-.035 2.92.698 5.242 2.197 6.964 1.499 1.723 3.578 2.601 6.235 2.633 1.92.022 3.64-.289 5.163-.931z"/><path d="m421.753 53.916 5.914.07-.197 16.485c-.029 2.532.367 4.474 1.189 5.82.824 1.349 2.023 2.031 3.602 2.05 3.332.04 5.028-2.543 5.091-7.752l.196-16.486 5.914.07-.193 16.141c-.052 4.389-1.039 7.711-2.961 9.968-1.922 2.259-4.689 3.365-8.302 3.321-7.069-.084-10.552-4.628-10.444-13.633z"/><path d="m448.226 83.323.343-28.699c2.168-.405 4.828-.591 7.981-.553 3.892.046 6.68.808 8.368 2.28 1.687 1.474 2.513 3.563 2.48 6.266-.019 1.611-.466 3.063-1.339 4.354-.874 1.292-1.995 2.197-3.361 2.712l-.003.174c1.595.695 2.73 2.492 3.408 5.392 1.248 5.224 1.928 7.994 2.038 8.312l-6.028-.072c-.496-1.084-1.079-3.35-1.75-6.797-.336-1.73-.805-2.943-1.407-3.643-.602-.698-1.577-1.055-2.926-1.07l-1.831-.022-.136 11.437zm6.126-24.142-.095 7.984 2.442.029c1.475.018 2.643-.346 3.504-1.092.86-.744 1.299-1.758 1.313-3.037.016-1.28-.357-2.273-1.118-2.981-.762-.706-1.847-1.067-3.258-1.085-1.385-.015-2.315.044-2.788.182z"/><path d="m487.43 66.136-.064 5.396-9.882-.118-.082 6.818 11.027.132-.065 5.438-16.94-.202.348-29.088 16.405.195-.064 5.438-10.492-.125-.072 6z"/><path d="m492.407 83.72.341-28.57c2.548-.4 5.273-.584 8.173-.55 5.48.065 9.398 1.411 11.752 4.035 2.354 2.626 3.506 6.03 3.456 10.217-.06 4.95-1.463 8.768-4.209 11.453-2.749 2.687-6.954 3.997-12.611 3.93-2.621-.031-4.92-.203-6.902-.515zm6.198-23.752-.226 18.945c.328.091 1.04.142 2.135.154 2.937.035 5.221-.811 6.851-2.539 1.629-1.729 2.465-4.227 2.504-7.492.036-2.992-.673-5.281-2.122-6.865-1.45-1.586-3.557-2.396-6.315-2.428-1.158-.013-2.099.061-2.827.225z"/></g><path d="m227.024 111.99-4.939-12.748h1.826l3.313 9.261c.267.743.489 1.438.669 2.088.197-.695.426-1.393.687-2.088l3.444-9.261h1.722l-4.991 12.748z"/><path d="m235.739 111.99v-12.748h9.218v1.505h-7.53v3.905h7.052v1.494h-7.052v4.34h7.827v1.504z"/><path d="m248.054 111.99v-12.748h5.652c1.136 0 2 .115 2.591.344s1.063.634 1.418 1.213c.353.578.53 1.221.53 1.922 0 .904-.293 1.666-.878 2.287-.586.621-1.49 1.016-2.713 1.184.446.213.785.424 1.017.634.493.451.959 1.017 1.4 1.694l2.218 3.471h-2.122l-1.688-2.652c-.492-.764-.899-1.352-1.217-1.757-.319-.405-.605-.689-.857-.851-.251-.162-.508-.277-.77-.34-.191-.04-.503-.061-.939-.061h-1.956v5.66zm1.688-7.121h3.625c.771 0 1.375-.08 1.81-.24.434-.158.765-.413.99-.766.227-.351.34-.731.34-1.143 0-.602-.219-1.1-.657-1.488-.437-.389-1.128-.582-2.074-.582h-4.034z"/><path d="m261.622 111.99v-12.748h1.687v12.748z"/><path d="m266.815 111.99v-12.748h8.601v1.505h-6.914v3.946h5.983v1.505h-5.983v5.792z"/><path d="m281.644 111.99v-5.399l-4.914-7.349h2.053l2.513 3.844c.464.719.896 1.438 1.295 2.156.383-.666.847-1.417 1.392-2.252l2.47-3.748h1.965l-5.087 7.349v5.399z"/><path d="m294.873 107.895 1.592-.14c.075.637.25 1.16.526 1.57.275.407.703.738 1.282.99.58.254 1.232.379 1.957.379.644 0 1.211-.096 1.704-.287s.859-.453 1.101-.787c.239-.334.36-.697.36-1.092 0-.399-.116-.748-.349-1.047-.231-.299-.614-.551-1.147-.752-.342-.134-1.099-.342-2.27-.623-1.171-.28-1.991-.545-2.461-.795-.608-.32-1.063-.714-1.36-1.188-.299-.472-.448-1-.448-1.587 0-.644.183-1.243.548-1.803.365-.561.898-.985 1.601-1.275.7-.289 1.48-.434 2.339-.434.944 0 1.777.152 2.5.455.722.305 1.276.752 1.665 1.345.389.591.598 1.261.626 2.008l-1.617.122c-.087-.807-.381-1.414-.883-1.825-.501-.411-1.242-.619-2.222-.619-1.02 0-1.764.188-2.23.562-.467.374-.7.825-.7 1.354 0 .457.165.834.495 1.129.325.297 1.174.6 2.544.908 1.371.311 2.313.583 2.822.813.741.343 1.29.775 1.644 1.302.354.523.53 1.129.53 1.813 0 .678-.194 1.318-.583 1.918s-.946 1.066-1.673 1.4c-.728.333-1.547.498-2.457.498-1.153 0-2.121-.167-2.9-.504-.779-.336-1.392-.842-1.835-1.516-.444-.677-.678-1.44-.701-2.292z"/><path d="m307.806 111.99v-12.748h9.218v1.505h-7.529v3.905h7.052v1.494h-7.052v4.34h7.826v1.504z"/><path d="m329.192 107.519 1.687.428c-.354 1.387-.99 2.441-1.909 3.169s-2.041 1.091-3.369 1.091c-1.374 0-2.491-.279-3.353-.838-.86-.56-1.516-1.371-1.965-2.432-.45-1.061-.675-2.2-.675-3.417 0-1.327.255-2.485.761-3.474.508-.989 1.229-1.74 2.166-2.252.937-.514 1.967-.77 3.091-.77 1.275 0 2.349.324 3.219.973.869.65 1.475 1.563 1.816 2.74l-1.66.392c-.296-.928-.726-1.604-1.287-2.026-.563-.423-1.271-.635-2.122-.635-.979 0-1.799.234-2.457.703-.658.471-1.12 1.102-1.387 1.892-.267.792-.399 1.607-.399 2.449 0 1.084.157 2.03.474 2.838.315.81.808 1.413 1.474 1.813.667.4 1.389.6 2.166.6.944 0 1.744-.271 2.399-.816s1.098-1.355 1.33-2.428z"/><path d="m341.767 99.242h1.687v7.365c0 1.282-.145 2.299-.434 3.052-.291.755-.813 1.368-1.57 1.84-.757.473-1.749.708-2.979.708-1.194 0-2.172-.205-2.931-.617-.76-.41-1.302-1.007-1.626-1.786-.325-.78-.487-1.845-.487-3.196v-7.365h1.688v7.355c0 1.109.104 1.924.309 2.45.206.524.56.928 1.062 1.212.501.285 1.114.426 1.839.426 1.241 0 2.124-.279 2.652-.844.527-.562.791-1.644.791-3.244v-7.356z"/><path d="m346.735 111.99v-12.748h5.652c1.136 0 2 .115 2.591.344.592.229 1.063.634 1.418 1.213.354.578.53 1.221.53 1.922 0 .904-.293 1.666-.878 2.287s-1.49 1.016-2.713 1.184c.445.213.784.424 1.017.634.493.451.959 1.017 1.4 1.694l2.218 3.471h-2.122l-1.688-2.652c-.492-.764-.898-1.352-1.217-1.757s-.604-.689-.857-.851c-.251-.162-.508-.277-.77-.34-.191-.04-.503-.061-.938-.061h-1.956v5.66zm1.688-7.121h3.625c.771 0 1.375-.08 1.81-.24.435-.158.765-.413.991-.766.227-.351.34-.731.34-1.143 0-.602-.22-1.1-.657-1.488s-1.129-.582-2.074-.582h-4.034v4.219z"/><path d="m360.302 111.99v-12.748h1.688v12.748z"/><path d="m368.652 111.99v-11.243h-4.201v-1.505h10.105v1.505h-4.218v11.243z"/><path d="m380.324 111.99v-5.399l-4.913-7.349h2.053l2.513 3.844c.464.719.896 1.438 1.295 2.156.383-.666.847-1.417 1.392-2.252l2.47-3.748h1.966l-5.088 7.349v5.399z"/><path d="m394.181 111.99v-12.748h1.687v5.234h6.627v-5.234h1.687v12.748h-1.687v-6.009h-6.627v6.009z"/><path d="m407.469 111.99v-12.748h9.218v1.505h-7.53v3.905h7.053v1.494h-7.053v4.34h7.827v1.504z"/><path d="m419.784 111.99v-12.748h5.652c1.137 0 2.001.115 2.592.344s1.063.634 1.418 1.213c.354.578.53 1.221.53 1.922 0 .904-.293 1.666-.878 2.287-.586.621-1.49 1.016-2.713 1.184.445.213.784.424 1.017.634.492.451.959 1.017 1.4 1.694l2.218 3.471h-2.122l-1.688-2.652c-.492-.764-.898-1.352-1.217-1.757s-.604-.689-.857-.851c-.251-.162-.509-.277-.77-.34-.191-.04-.504-.061-.938-.061h-1.956v5.66zm1.689-7.121h3.625c.771 0 1.374-.08 1.81-.24.435-.158.765-.413.99-.766.227-.351.34-.731.34-1.143 0-.602-.219-1.1-.656-1.488s-1.129-.582-2.074-.582h-4.034v4.219z"/><path d="m433.101 111.99v-12.748h9.218v1.505h-7.53v3.905h7.052v1.494h-7.052v4.34h7.826v1.504z"/><path d="m275.713 27.9v9.878c-2.272.722-4.452 1.083-6.539 1.083-3.523 0-6.171-.868-7.942-2.607-1.771-1.738-2.657-3.986-2.657-6.74 0-2.977 1.013-5.352 3.039-7.129 2.026-1.775 4.695-2.663 8.006-2.663 2.263 0 4.08.314 5.453.944l-.918 3.395c-1.271-.557-2.811-.834-4.619-.834-1.957 0-3.517.535-4.681 1.607-1.164 1.07-1.746 2.547-1.746 4.43 0 1.863.567 3.354 1.704 4.473s2.636 1.676 4.5 1.676c1.058 0 1.799-.093 2.227-.277v-3.896h-3.033v-3.339h7.206z" fill="#8ec200"/><path d="m296.94 29.125c0 2.977-.874 5.361-2.622 7.156-1.748 1.796-4.046 2.693-6.893 2.693-2.764 0-4.99-.894-6.678-2.678-1.688-1.787-2.531-4.074-2.531-6.867 0-2.855.881-5.205 2.643-7.051s4.034-2.77 6.817-2.77c2.8 0 5.044.892 6.731 2.67 1.69 1.782 2.533 4.063 2.533 6.847zm-14.188.194c0 1.837.44 3.339 1.321 4.507.881 1.17 2.036 1.754 3.463 1.754 1.466 0 2.635-.581 3.506-1.738.872-1.16 1.309-2.686 1.309-4.578 0-1.816-.439-3.315-1.315-4.492-.876-1.18-2.033-1.768-3.47-1.768-1.447 0-2.611.592-3.492 1.773s-1.322 2.696-1.322 4.542z" fill="#8ec200"/><path d="m299.806 38.584v-18.418c1.855-.278 3.84-.418 5.954-.418 3.997 0 6.865.838 8.604 2.511 1.738 1.675 2.607 3.86 2.607 6.56 0 3.19-.989 5.662-2.97 7.415-1.979 1.753-5.034 2.628-9.16 2.628-1.91-.001-3.589-.092-5.035-.278zm4.313-15.358v12.215c.24.055.76.082 1.558.082 2.142 0 3.8-.563 4.973-1.689 1.173-1.128 1.76-2.743 1.76-4.848 0-1.93-.535-3.4-1.607-4.41-1.07-1.011-2.612-1.518-4.625-1.518-.845 0-1.531.057-2.059.168z" fill="#8ec200"/><path d="m327.906 33.77h-5.621l-1.39 4.897h-4.48l5.927-18.752h5.675l6.094 18.752h-4.675zm-4.98-3.171h4.312c-1.131-3.663-1.863-6.178-2.197-7.541h-.056l-.891 3.563z" fill="#8ec200"/><path d="m336.642 38.584v-18.418c1.854-.278 3.84-.418 5.954-.418 3.997 0 6.865.838 8.604 2.511 1.738 1.675 2.607 3.86 2.607 6.56 0 3.19-.99 5.662-2.97 7.415s-5.034 2.628-9.161 2.628c-1.909-.001-3.588-.092-5.034-.278zm4.312-15.358v12.215c.241.055.761.082 1.559.082 2.142 0 3.8-.563 4.973-1.689 1.173-1.128 1.759-2.743 1.759-4.848 0-1.93-.535-3.4-1.606-4.41-1.07-1.011-2.613-1.518-4.625-1.518-.845 0-1.531.057-2.06.168z" fill="#8ec200"/><path d="m356.673 38.584v-18.418c1.855-.278 3.84-.418 5.954-.418 3.997 0 6.865.838 8.604 2.511 1.739 1.675 2.607 3.86 2.607 6.56 0 3.19-.989 5.662-2.97 7.415-1.979 1.753-5.034 2.628-9.16 2.628-1.909-.001-3.589-.092-5.035-.278zm4.313-15.358v12.215c.24.055.76.082 1.558.082 2.142 0 3.8-.563 4.974-1.689 1.172-1.128 1.759-2.743 1.759-4.848 0-1.93-.535-3.4-1.606-4.41-1.071-1.011-2.613-1.518-4.626-1.518-.845 0-1.53.057-2.059.168z" fill="#8ec200"/><path d="m384.439 38.668h-4.313v-7.735l-6.12-11.017h4.952c2.271 5.166 3.449 7.855 3.533 8.068.427-1.15 1.585-3.84 3.478-8.068h4.896l-6.427 10.852v7.9z" fill="#8ec200"/><path d="m391.872 28.675c0-2.874 1.02-5.332 3.06-7.369 2.039-2.04 4.495-3.059 7.369-3.059 2.857 0 5.295 1.019 7.311 3.059 2.017 2.037 3.024 4.495 3.024 7.369 0 2.92-1.004 5.396-3.013 7.426-2.009 2.033-4.449 3.048-7.322 3.048-2.874 0-5.33-1.022-7.369-3.07-2.04-2.048-3.06-4.515-3.06-7.404zm18.354.045c0-2.317-.776-4.295-2.329-5.933-1.552-1.636-3.418-2.455-5.596-2.455-2.179 0-4.045.819-5.597 2.455-1.553 1.638-2.329 3.615-2.329 5.933s.772 4.288 2.317 5.911c1.545 1.62 3.414 2.433 5.608 2.433 2.193 0 4.063-.813 5.607-2.433 1.546-1.623 2.319-3.592 2.319-5.911zm-9.733 1.252v4.773h-2.457v-11.585c1.405-.216 2.642-.324 3.708-.324 1.729 0 2.997.263 3.8.787.804.525 1.206 1.407 1.206 2.641 0 1.361-.742 2.258-2.225 2.689v.092c1.05.202 1.668 1.145 1.854 2.828.17 1.313.371 2.271.603 2.873h-2.503c-.201-.262-.433-1.267-.695-3.012-.17-1.175-.896-1.762-2.178-1.762zm0-5.238v3.338h1.158c1.699 0 2.549-.557 2.549-1.669 0-1.143-.787-1.714-2.363-1.714-.711 0-1.159.016-1.344.045z" fill="#8ec200"/></svg>